<svg version="1.2" xmlns="http://www.w3.org/2000/svg" viewBox="0 0 500 105" width="500" height="105">
	<title>white-full-svg</title>
	<style>
		.s0 { fill: #010101 } 
		.s1 { fill: #fcfdfc } 
		.s2 { fill: #0e6712 } 
		.s3 { fill: #c8a150 } 
		.s4 { fill: #c8a250 } 
		.s5 { fill: #136813 } 
		.s6 { fill: #1a6914 } 
		.s7 { fill: #758734 } 
		.s8 { fill: #216b16 } 
		.s9 { fill: #c9a251 } 
		.s10 { fill: #1d6a15 } 
		.s11 { fill: #c7a150 } 
		.s12 { fill: #c19f4e } 
		.s13 { fill: #1e6c17 } 
		.s14 { fill: #236e1a } 
		.s15 { fill: #0e6914 } 
		.s16 { fill: #0f6914 } 
		.s17 { fill: #2e701c } 
		.s18 { fill: #1f6d18 } 
		.s19 { fill: #256e1a } 
		.s20 { fill: #30711d } 
		.s21 { fill: #2d701c } 
		.s22 { fill: #2a701b } 
		.s23 { fill: #276e1a } 
		.s24 { fill: #116712 } 
		.s25 { fill: #256f1a } 
		.s26 { fill: #156a15 } 
		.s27 { fill: #1b6a15 } 
		.s28 { fill: #146a15 } 
		.s29 { fill: #136a15 } 
		.s30 { fill: #b69c4a } 
		.s31 { fill: #176a16 } 
		.s32 { fill: #3f7622 } 
		.s33 { fill: #39741f } 
		.s34 { fill: #266f1b } 
		.s35 { fill: #467823 } 
		.s36 { fill: #26701b } 
		.s37 { fill: #31721d } 
		.s38 { fill: #236f1a } 
		.s39 { fill: #256f1b } 
		.s40 { fill: #407622 } 
		.s41 { fill: #296f1b } 
		.s42 { fill: #040302 } 
		.s43 { fill: #32721e } 
		.s44 { fill: #216c18 } 
		.s45 { fill: #236d19 } 
		.s46 { fill: #fbfbfb } 
		.s47 { fill: #a60415 } 
		.s48 { fill: #fefefd } 
		.s49 { fill: #186b16 } 
		.s50 { fill: #1b6b16 } 
		.s51 { fill: #1e6a16 } 
		.s52 { fill: #196b16 } 
		.s53 { fill: #1a6b16 } 
		.s54 { fill: #186914 } 
		.s55 { fill: #a30114 } 
		.s56 { fill: #708632 } 
		.s57 { fill: #176914 } 
		.s58 { fill: #146914 } 
		.s59 { fill: #166a15 } 
		.s60 { fill: #2c6f1a } 
		.s61 { fill: #2b6f1a } 
		.s62 { fill: #276e19 } 
		.s63 { fill: #1d6c17 } 
		.s64 { fill: #206c18 } 
		.s65 { fill: #296e1a } 
		.s66 { fill: #2d6f1b } 
		.s67 { fill: #33711d } 
		.s68 { fill: #31711c } 
		.s69 { fill: #176b16 } 
		.s70 { fill: #2c6f1b } 
		.s71 { fill: #206d18 } 
		.s72 { fill: #246d18 } 
		.s73 { fill: #266e19 } 
		.s74 { fill: #256d19 } 
		.s75 { fill: #166915 } 
		.s76 { fill: #1a6a15 } 
		.s77 { fill: #236d18 } 
		.s78 { fill: #216c17 } 
		.s79 { fill: #1c6b16 } 
		.s80 { fill: #176a15 } 
		.s81 { fill: #236c18 } 
		.s82 { fill: #1c6b17 } 
		.s83 { fill: #34721e } 
		.s84 { fill: #35721d } 
		.s85 { fill: #3c7420 } 
		.s86 { fill: #2a6f1a } 
		.s87 { fill: #246d19 } 
		.s88 { fill: #2a6e1a } 
		.s89 { fill: #226d18 } 
		.s90 { fill: #286f1a } 
		.s91 { fill: #1f6a16 } 
		.s92 { fill: #b39b49 } 
		.s93 { fill: #c3a04f } 
		.s94 { fill: #b29b49 } 
		.s95 { fill: #ac9947 } 
		.s96 { fill: #bc9e4c } 
		.s97 { fill: #bf9f4d } 
		.s98 { fill: #bb9e4c } 
		.s99 { fill: #b09a48 } 
		.s100 { fill: #bd9e4d } 
		.s101 { fill: #c09f4d } 
		.s102 { fill: #2a711c } 
		.s103 { fill: #106813 } 
		.s104 { fill: #176915 } 
		.s105 { fill: #166914 } 
		.s106 { fill: #226c18 } 
		.s107 { fill: #1f6b17 } 
		.s108 { fill: #196914 } 
		.s109 { fill: #c9a250 } 
		.s110 { fill: #060000 } 
		.s111 { fill: #0c6211 } 
		.s112 { fill: #c79f50 } 
		.s113 { fill: #080000 } 
		.s114 { fill: #c9a050 } 
		.s115 { fill: #a20114 } 
		.s116 { fill: #0c6010 } 
		.s117 { fill: #070000 } 
		.s118 { fill: #5a5a5a } 
		.s119 { fill: #575757 } 
		.s120 { fill: #999999 } 
		.s121 { fill: #f9f9f9 } 
		.s122 { fill: #fcfcfc } 
		.s123 { fill: #0b5e10 } 
		.s124 { fill: #0b5d10 } 
		.s125 { fill: #0c6411 } 
		.s126 { fill: #7b7b7b } 
		.s127 { fill: #c69e4f } 
		.s128 { fill: #cba351 } 
		.s129 { fill: #0b5a10 } 
		.s130 { fill: #0b5910 } 
		.s131 { fill: #71592d } 
		.s132 { fill: #a00114 } 
		.s133 { fill: #f8f8f8 } 
		.s134 { fill: #0a530e } 
		.s135 { fill: #08490d } 
		.s136 { fill: #063009 } 
		.s137 { fill: #c9a151 } 
		.s138 { fill: #0c6011 } 
		.s139 { fill: #0c6111 } 
		.s140 { fill: #f3f3f3 } 
		.s141 { fill: #f0f0f0 } 
		.s142 { fill: #094e0e } 
		.s143 { fill: #07430c } 
		.s144 { fill: #bdbdbd } 
		.s145 { fill: #f6f6f6 } 
		.s146 { fill: #0b5c10 } 
		.s147 { fill: #0b5b10 } 
		.s148 { fill: #7c7c7c } 
		.s149 { fill: #838383 } 
		.s150 { fill: #fdfdfd } 
		.s151 { fill: #c49d4e } 
		.s152 { fill: #ba954b } 
		.s153 { fill: #bd974c } 
		.s154 { fill: #c19a4d } 
		.s155 { fill: #c0994d } 
		.s156 { fill: #be984c } 
		.s157 { fill: #171209 } 
		.s158 { fill: #130e07 } 
		.s159 { fill: #c09a4d } 
		.s160 { fill: #5c4924 } 
		.s161 { fill: #0e0b04 } 
		.s162 { fill: #126813 } 
		.s163 { fill: #c6a150 } 
		.s164 { fill: #8fb991 } 
		.s165 { fill: #ffffff } 
	</style>
	<g id="Unjani">
		<g id="Layer">
			<path id="Layer" fill-rule="evenodd" class="s0" d="m53.8 3.5q0 0 0.1 0 0.5 0.6 0.9 1.1 0.8 0.6 1.5 1.3 4.1 3.2 9.1 5.1 5.3 2.2 10.6 4.5 3.3 1.6 6.2 3.9 1.2 1.1 2.3 2.1 1 1.1 1.9 2.3 2.9 4.1 6.1 7.8 4.1 4.4 9.5 7 0 0.1 0 0.1-1.5 2.5-2.2 5.3-0.8 3.2-1.1 6.4-0.5 5.6-1 11.2-0.5 4.8-2.8 9.1-0.7 1.4-1.5 2.7-2.1 3.3-4.1 6.7-3.4 6.1-4.4 13-0.3 1.8-0.5 3.6-4.8-1.1-9.8-0.4-2.7 0.3-5.2 1.1-4.2 1.3-8.3 2.3-2.8 0.6-5.4 0.8-1.6 0-3.3 0-3-0.3-6-0.8-5.5-1.2-11.1-2.5-6.1-1.5-12.4-1.3-0.7 0-1.4 0.1-0.1 0-0.3-0.1-0.7-6.1-2.6-11.9-1.5-3.8-3.6-7.2-3.4-4.8-5-10.4-1.3-4.9-1.6-9.9-0.1-4.1-0.3-8.1-0.2-4.2-1.5-7.9-0.6-1.7-1.6-3.2 0-0.1 0-0.1 2.7-0.3 4.9-2.1 2.4-1.9 4.5-4.3 3.5-4.4 7.1-8.6 3.6-3.8 8-6.5 2.5-1.4 5.2-2.4 3.6-1.1 7.1-2.3 3.9-1.5 7.4-3.9 2.4-1.8 4.6-3.6z"/>
		</g>
		<g id="Layer">
			<path id="Layer" fill-rule="evenodd" class="s1" d="m53.7 5.2q3.2 3.4 7.1 5.4 2.1 1.1 4.3 2.1 5.2 1.9 10.2 4.2 5.1 2.3 8.8 6.5 2.8 3.6 5.6 7.3 4.3 5.4 10.6 8.5-2 3.3-2.6 7.1-0.4 1.7-0.6 3.4-0.4 5.4-0.9 10.7-0.4 4-1.7 7.6-1.4 2.9-3.1 5.6-2.5 3.7-4.6 7.8-3 6.5-3.5 13.7-6.5-1.5-13 0.3-3.7 0.9-7.3 2-7.7 2.3-15.5 0.7-6-1.2-11.9-2.7-6-1.3-12.1-1.1-0.6 0-1.1 0.1-0.6-6-2.6-11.7-0.7-2-1.7-3.9-1.5-2.7-3.3-5.2-3.7-6.6-4.5-14-0.2-2.3-0.2-4.6-0.1-3.4-0.3-6.7-0.2-5.1-2.5-9.6-0.3-0.4-0.6-0.9 2.6-0.5 4.6-1.9 2.4-2 4.5-4.3 2.2-2.7 4.4-5.5 2.5-2.9 5.3-5.6 4-3.3 8.7-5.3 3.5-1.2 7.1-2.3 5-1.9 9.2-5 1.7-1.3 3.2-2.7z"/>
		</g>
		<g id="Layer">
			<path id="Layer" fill-rule="evenodd" class="s2" d="m24.1 92.3q-0.2 0-0.3 0 0-0.1 0-0.2-0.6-5.6-2.4-10.9-0.8-2-1.9-4-1.5-2.6-3.1-5.2-3.7-6.4-4.1-13.9-0.3-4.4-0.4-8.8-0.2-4.1-1.6-8.1-0.5-1.5-1.3-2.8 3.2-0.5 5.6-2.8 1.3-1.3 2.6-2.8 2.4-2.7 4.6-5.6 3.2-3.9 7.3-7 3.6-2.5 7.8-3.9 3.9-1.2 7.5-2.7 5.2-2.4 9.4-6.1 2.9 3.1 6.6 5 1.8 0.9 3.6 1.8 4.8 1.8 9.5 3.9 4 1.8 7.4 4.7 1.7 1.7 3.2 3.6 1.9 2.7 3.9 5.3 4.2 5.1 10 7.9-1.9 3.4-2.5 7.4-0.3 1.9-0.6 3.9-0.3 5-0.8 10-0.6 4.5-2.7 8.4-0.8 1.6-1.7 3.1-1.8 2.8-3.5 5.7-3.1 5.5-3.9 11.9-0.3 1.5-0.3 3-4.5-1.1-9.1-0.4-2.3 0.4-4.5 0.9-3.9 1.1-8 2.2-6.1 1.4-12.4 0.2-5.5-1.1-10.9-2.4-4.1-0.9-8.3-1.3-2.4-0.1-4.7 0z"/>
		</g>
		<g id="Layer">
			<path id="Layer" fill-rule="evenodd" class="s3" d="m53.5 19.9q0.7 0.1 1.5 0.1 0 0.3 0 0.6-0.8 0-1.5 0 0 0.4 0 0.7 0.9 0 1.8 0 0 0.4 0 0.7-1.4 0-2.7 0 0-1.7 0.1-3.4 1.3 0 2.6 0 0 0.3 0 0.6-0.9 0-1.8 0 0 0.4 0 0.7z"/>
		</g>
		<g id="Layer">
			<path id="Layer" fill-rule="evenodd" class="s3" d="m56.4 18.7q1.1 0 2.1 0.2 0.9 0.8 0.4 1.8-0.3 0.3-0.7 0.4 0.3 0.6 0.7 1.2-0.1 0-0.1 0.1-0.4-0.1-0.7-0.1-0.3-0.6-0.7-1.1-0.3-0.1-0.6-0.1 0 0.4-0.1 1-0.3 0-0.7 0 0.1-1.8 0.4-3.4z"/>
		</g>
		<g id="Layer">
			<path id="Layer" fill-rule="evenodd" class="s3" d="m48.9 18.8q0.9-0.1 1.6 0 1.8 0.6 1.2 2.4-0.5 0.8-1.4 0.9-0.7 0.1-1.5 0.1-0.1-1.7-0.2-3.4 0.2 0.1 0.3 0z"/>
		</g>
		<g id="Layer">
			<path id="Layer" fill-rule="evenodd" class="s3" d="m47.1 19q0.1 0 0.2 0.1 0.4 1.7 0.7 3.3-0.3 0.1-0.7 0.1-1-0.8-1.9-1.7 0.1 1.1 0.3 2.1-0.3 0.1-0.7 0.2-0.4-1.7-0.6-3.3 0.2-0.3 0.6-0.2 1 0.8 1.9 1.6-0.1-1-0.3-2 0.2-0.1 0.5-0.2z"/>
		</g>
		<g id="Layer">
			<path id="Layer" fill-rule="evenodd" class="s4" d="m61.3 19.4q0.3 0 0.7 0.1 0.4 1.7 0.6 3.5 0 0.1 0 0.2-0.3-0.1-0.6-0.1-0.1-0.5-0.2-0.9-0.6-0.1-1.3-0.2-0.4 0.2-0.6 0.5-0.4 0-0.7-0.1 1.1-1.5 2.1-3z"/>
		</g>
		<g id="Layer">
			<path id="Layer" fill-rule="evenodd" class="s5" d="m49.4 19.4q0.7-0.1 1.2 0.2 0.9 0.8 0 1.7-0.5 0.2-1.1 0.2 0-1.1-0.1-2.1z"/>
		</g>
		<g id="Layer">
			<path id="Layer" fill-rule="evenodd" class="s6" d="m56.9 19.4q0.6 0 1.2 0.2 0.4 0.4 0 0.8-0.6 0.1-1.2-0.1 0-0.4 0-0.9z"/>
		</g>
		<g id="Layer">
			<path id="Layer" fill-rule="evenodd" class="s7" d="m53.5 19.9q0.8 0 1.6 0 0 0.4-0.1 0.7 0-0.3 0-0.6-0.8 0-1.5-0.1z"/>
		</g>
		<g id="Layer">
			<path id="Layer" fill-rule="evenodd" class="s3" d="m43.2 20q0 0 0.1 0.1 0 0.2 0.1 0.5-0.9 0.3-1.7 0.6 0.1 0.3 0.2 0.5 0.1 0.1 0.2 0.1 0.6-0.2 1.3-0.5 0.1 0.3 0.2 0.7-0.6 0.3-1.4 0.4-0.1 0.4 0.2 0.8 0.8-0.3 1.6-0.6 0.1 0.1 0.2 0.1 0.1 0.2 0.2 0.5-0.1 0.1-0.2 0.1-1.1 0.3-2.3 0.7-0.6-1.6-1.1-3.2 1.2-0.4 2.4-0.8z"/>
		</g>
		<g id="Layer">
			<path id="Layer" fill-rule="evenodd" class="s3" d="m64.3 20.1q0.3 0.2 0.6 0.2-0.3 1.4-0.7 2.8 0.7 0.2 1.6 0.4-0.1 0.3-0.2 0.6 0 0.1-0.1 0.1-1.1-0.4-2.2-0.7 0-0.4 0.2-0.8 0.3-1.3 0.8-2.6z"/>
		</g>
		<g id="Layer">
			<path id="Layer" fill-rule="evenodd" class="s8" d="m61.4 20.3q0.1 0.1 0.1 0.3 0.1 0.5 0.1 0.9-0.4-0.1-0.8-0.3 0.4-0.3 0.6-0.9z"/>
		</g>
		<g id="Layer">
			<path id="Layer" fill-rule="evenodd" class="s3" d="m39.6 21.2q0.1 0 0.2 0 0.6 1.3 1 2.6-0.2 1.1-1.4 1.2-0.9 0-0.4-0.7 0.3 0 0.7 0 0.4-0.2 0.2-0.8-0.4-0.9-0.9-1.9 0.1-0.1 0.1-0.2 0.3 0 0.5-0.2z"/>
		</g>
		<g id="Layer">
			<path id="Layer" fill-rule="evenodd" class="s9" d="m70 22.5q0.4 0.1 0.6 0.3 0 0.2 0.1 0.4-0.1 1.6-0.2 3.4-0.3-0.1-0.7-0.3 0-0.5 0-0.9-0.6-0.4-1.4-0.6-0.2 0.2-0.5 0.5-0.3-0.2-0.7-0.4 1.5-1.1 2.8-2.4z"/>
		</g>
		<g id="Layer">
			<path id="Layer" fill-rule="evenodd" class="s10" d="m69.9 23.5q0.1 0.6 0 1.2-0.4-0.2-0.8-0.4 0.4-0.4 0.8-0.8z"/>
		</g>
		<g id="Layer">
			<path id="Layer" fill-rule="evenodd" class="s11" d="m35.1 23.5q0.2 0 0.5 0 0 0.4 0 0.8-0.6-0.1-1.1 0.4-0.1 0.1 0 0.3 0.3 0.1 0.6 0 0.7-0.3 1.4-0.1 0.9 0.7 0.3 1.6-0.8 0.7-1.9 0.7 0-0.3 0-0.7 0.7 0.1 1.3-0.4 0.2-0.4-0.3-0.4-0.5 0.1-1 0.1-1 0.1-1.1-0.9 0-0.8 0.7-1.1 0.3-0.1 0.6-0.3z"/>
		</g>
		<g id="Layer">
			<path id="Layer" fill-rule="evenodd" class="s12" d="m53.5 23.5q0.2 0.8 0.4 1.4 0.8 0.1 1.7 0 1.2-0.1 1.7 0.9 1.1 0.1 1.4 1.1 0.1 0.3 0.2 0.7 0.3 0.2 0.5 0.5 0.1 0.6 0.2 1.1 0.7 0.2 0.7 0.9 0 0.3-0.2 0.7 0.3 0.3 0.2 0.7 0 0.5-0.1 0.9 0.2 0.7-0.2 1.3 0.3 0.8-0.4 1.3 0 0.7-0.6 1 0.2 0.7-0.3 1.1 0 0.9-0.8 0.9 0.5 1-0.1 1.9-0.4 0.4-0.6 0.8 0 0.1 0.1 0.3 0.7 0.7-0.2 1.5-0.5 0.3-1 0.6-0.2 0.2-0.3 0.2-0.4 0.6-1.1 0.6 0 0.2-0.2 0.4-0.5 0-1 0.2-0.3 0.1-0.7-0.2-0.3 0-0.6 0-0.2-0.2-0.3-0.4-0.7-0.1-0.9-0.6-0.5 0-0.7-0.4-0.9-0.3-1.3-1.2 0-0.1 0-0.3 0.2-0.5 0.5-0.8-0.5-0.7-0.7-1.4-0.1-0.7 0.1-1.2-0.9-0.1-0.9-1-0.2-0.1-0.3-0.4 0.1-0.7-0.5-1.1-0.1-0.3-0.1-0.6-0.4-0.2-0.5-0.8 0-0.3 0.1-0.4-0.4-0.7-0.1-1.4-0.4-0.6-0.3-1.2 0.5-0.4 0.2-0.8-0.2-1 0.6-1.1-0.1-0.9 0.4-1.5 0.2-0.1 0.3-0.2 0.1-0.8 0.7-1.4 0.4-0.3 0.9-0.3 0.8-1.2 2.3-1 0.2 0.1 0.5 0.1 0.3 0 0.8 0 0.2-0.7 0.5-1.4z"/>
		</g>
		<g id="Layer">
			<path id="Layer" fill-rule="evenodd" class="s4" d="m72.6 24.5q1.4-0.2 2.1 1.2 0.1 0.1 0 0.2-0.3 0.1-0.6 0.2-0.1-0.3-0.4-0.7-0.8-0.6-1.5 0.3-0.6 1 0.5 1.6 0.9-0.2 0.8 0.7-1.7 0.2-2.2-1.3-0.3-1.7 1.3-2.2z"/>
		</g>
		<g id="Layer">
			<path id="Layer" fill-rule="evenodd" class="s13" d="m53.3 24.5q0.2 0.3 0.1 0.8-0.2-0.1-0.3-0.3 0.2-0.3 0.2-0.5z"/>
		</g>
		<g id="Layer">
			<path id="Layer" fill-rule="evenodd" class="s14" d="m53.5 24.4q0.1 0.2 0.2 0.6-0.1 0.2-0.2 0.4 0-0.6 0-1z"/>
		</g>
		<g id="Layer">
			<path id="Layer" fill-rule="evenodd" class="s15" d="m50.5 25q0.6 0 1 0 0.5 0.4 0.9 0.7-1.5 0.6-1.8 2.3 0 2.6 1 5.1-0.1 0-0.1 0.1-1.7-2.2-2.3-5-0.2-1.2 0.3-2.3 0.4-0.6 1-0.9z"/>
		</g>
		<g id="Layer">
			<path id="Layer" fill-rule="evenodd" class="s16" d="m55.3 25.1q1.7-0.2 2.1 1.7 0.4 2-0.5 3.9-0.8 1.3-1.7 2.5 0-0.1-0.1-0.1 1-2.5 0.9-5.1-0.2-1.6-1.6-2.2 0.4-0.3 0.9-0.7z"/>
		</g>
		<g id="Layer">
			<path id="Layer" fill-rule="evenodd" class="s17" d="m52.5 25.1q0.5-0.1 0.8 0.3-0.6 0-0.9-0.2 0 0 0.1-0.1z"/>
		</g>
		<g id="Layer">
			<path id="Layer" fill-rule="evenodd" class="s18" d="m53.8 25.2q0.4-0.1 0.7 0-0.4 0.1-0.8 0.2 0-0.1 0.1-0.2z"/>
		</g>
		<g id="Layer">
			<path id="Layer" fill-rule="evenodd" class="s19" d="m52.4 25.4q0 0 0 0 0.3 0.1 0.7 0.2-0.1 0.1-0.3 0.1-0.3-0.1-0.4-0.3z"/>
		</g>
		<g id="Layer">
			<path id="Layer" fill-rule="evenodd" class="s20" d="m54.5 25.3q0.1 0 0.1 0-0.3 0.5-0.9 0.3 0.4-0.1 0.8-0.3z"/>
		</g>
		<g id="Layer">
			<path id="Layer" fill-rule="evenodd" class="s21" d="m53.2 25.7q0.1 0.1 0 0.1-0.3 0.3-0.5 0.7-0.1-0.7 0.5-0.8z"/>
		</g>
		<g id="Layer">
			<path id="Layer" fill-rule="evenodd" class="s22" d="m53.7 25.8q0 0 0 0 0.6 0.1 0.5 0.6-0.3-0.3-0.5-0.6z"/>
		</g>
		<g id="Layer">
			<path id="Layer" fill-rule="evenodd" class="s4" d="m31.5 25.8q1.6 0.9 3.3 1.9-0.3 0.3-0.6 0.4-0.3-0.1-0.7-0.3-0.6 0.3-1.1 0.9 0.1 0.4 0.1 0.8-0.2 0.2-0.5 0.4-0.5-1.8-1-3.6 0.3-0.2 0.5-0.5z"/>
		</g>
		<g id="Layer">
			<path id="Layer" fill-rule="evenodd" class="s23" d="m53.3 25.8q0.2 0.2 0 0.5-0.2 0.2-0.5 0.2 0.3-0.3 0.5-0.7z"/>
		</g>
		<g id="Layer">
			<path id="Layer" fill-rule="evenodd" class="s24" d="m52.4 25.8q0 0 0.2 0-0.2 0.8-0.3 1.4 0.5-0.4 1.2-0.8 0.5 0.4 1.1 0.7 0 0 0-0.1-0.7-1.8 0.8-0.2 0.4 0.5 0.4 1.2 0.1 2.4-0.8 4.7-0.1-0.8-0.1-1.6 0.2-0.3 0.4-0.4-0.2-0.2-0.3-0.3-0.3-0.6-0.8-1-0.6-0.2-1.1-0.2-0.2 0.1-0.3 0.2-0.5-0.5-1.2-0.2-0.3 0.2-0.4 0.4 0.3 0 0.5 0 0.4 0.1 0.7 0.5-0.4 0-0.7-0.1-0.2 0.2 0 0.3 0.3 0.3 0.7 0.5-0.3 1.1-0.6 2.1-1-2.4-0.9-4.9 0.1-1.5 1.5-2.2z"/>
		</g>
		<g id="Layer">
			<path id="Layer" fill-rule="evenodd" class="s25" d="m53.5 25.8q0.3 0.3 0.6 0.7-0.3-0.1-0.6-0.3 0-0.2 0-0.4z"/>
		</g>
		<g id="Layer">
			<path id="Layer" fill-rule="evenodd" class="s26" d="m48.9 26q0.2 0 0.4 0.1-0.4 0.8-0.4 1.6 0.1 1.9 1.2 3.7 0.4 0.7 1 1.4 0 0.1 0 0.1-1.9-1.8-2.8-4.3-0.3-0.7-0.2-1.5 0.2-0.7 0.8-1.1z"/>
		</g>
		<g id="Layer">
			<path id="Layer" fill-rule="evenodd" class="s26" d="m57.4 26.1q0.7 0 1 0.7 0.4 1 0 2-0.5 1.5-1.5 2.9-0.6 0.8-1.2 1.4 0.4-0.8 0.9-1.6 1.3-2.1 1.1-4.4-0.1-0.5-0.3-1z"/>
		</g>
		<g id="Layer">
			<path id="Layer" fill-rule="evenodd" class="s3" d="m75.9 26.2q0.3 0.2 0.5 0.5-0.3 0.5-0.8 1 0 0.1 0.1 0.1 0.6 0.3 0.9 0.8 0.6-0.5 0.9-1 0.3 0.2 0.6 0.4-1 1.4-2.2 2.7-0.3-0.3-0.6-0.4 0.5-0.6 0.9-1.1-0.4-0.5-1-0.9 0-0.1-0.1 0-0.4 0.6-0.9 1-0.2-0.2-0.5-0.4 1.1-1.4 2.2-2.7z"/>
		</g>
		<g id="Layer">
			<path id="Layer" fill-rule="evenodd" class="s27" d="m31.8 26.8q0.5 0.2 1.1 0.6-0.4 0.3-0.7 0.6-0.2-0.6-0.4-1.2z"/>
		</g>
		<g id="Layer">
			<path id="Layer" fill-rule="evenodd" class="s11" d="m29.6 27.3q0.1 0 0.2 0 0.2 0.3 0.4 0.5-0.4 0.2-0.7 0.6 0 0.1 0 0.2 0.9 0.9 1.8 1.9-0.2 0.3-0.6 0.5-0.9-0.9-1.7-1.8-0.2-0.1-0.3 0-0.3 0.2-0.5 0.6-0.3-0.3-0.6-0.6 1.1-0.9 2-1.9z"/>
		</g>
		<g id="Layer">
			<path id="Layer" fill-rule="evenodd" class="s28" d="m47.8 27.7q0 0 0.1 0 0.2 1.5 1 2.9 1 1.5 2.2 2.7 0.1 0.1 0 0.1-1.4-0.8-2.5-1.9-1-1.2-1.3-2.8 0-0.6 0.5-1z"/>
		</g>
		<g id="Layer">
			<path id="Layer" fill-rule="evenodd" class="s29" d="m58.8 27.8q0.6 0.2 0.5 0.9-0.2 2.2-1.9 3.6-0.9 0.7-1.9 1.3 1.9-2 2.9-4.4 0.3-0.7 0.4-1.4z"/>
		</g>
		<g id="Layer">
			<path id="Layer" fill-rule="evenodd" class="s4" d="m78.9 28.9q0.4 0.3 0.7 0.6-0.3 0.8-0.4 1.7 0.7-0.2 1.6-0.4 0.3 0.2 0.6 0.6-1.3 1.2-2.5 2.3-0.3-0.2-0.4-0.5 0.7-0.8 1.5-1.5-0.8 0-1.6 0.3-0.1-0.1-0.1-0.1 0.2-0.8 0.3-1.6-0.8 0.8-1.5 1.5-0.3-0.3-0.6-0.5 1.2-1.2 2.4-2.4z"/>
		</g>
		<g id="Layer">
			<path id="Layer" fill-rule="evenodd" class="s29" d="m51.7 29.3q0.7-0.1 1.1 0.4 0.3-0.4 0.7-0.3 0.3 0 0.7 0.2 0.4 0.6 0.8 1.1-0.4 0.4-0.4 0.8-0.3-0.1-0.5-0.3-0.2 0.3-0.5 0.1-0.1 0-0.1 0.1-0.2-0.2-0.4 0-0.2 0-0.4-0.2-0.2 0.3-0.3 0 0.1-0.4 0.4-0.7-0.5 0.1-0.9-0.2 0.3 0 0.5 0 0.1-0.1 0.2-0.3-0.4-0.4-0.9-0.7z"/>
		</g>
		<g id="Layer">
			<path id="Layer" fill-rule="evenodd" class="s29" d="m46.9 29.3q0.2 0 0.4 0 0.5 1.8 1.7 2.9 1.1 0.8 2.1 1.5-2.6-0.5-4.2-2.6-0.2-0.7-0.2-1.3 0-0.3 0.2-0.5z"/>
		</g>
		<g id="Layer">
			<path id="Layer" fill-rule="evenodd" class="s28" d="m59.4 29.4q0.8 0.1 0.7 0.9-0.2 0.5-0.5 1-1.1 1.5-3 2.2-0.6 0.2-1 0.2 1.3-0.8 2.5-1.9 1-1 1.3-2.4z"/>
		</g>
		<g id="Layer">
			<path id="Layer" fill-rule="evenodd" class="s30" d="m53.3 29.8q0.6-0.1 0.8 0.5-0.6 0.2-0.9-0.3 0.1-0.1 0.1-0.2z"/>
		</g>
		<g id="Layer">
			<path id="Layer" fill-rule="evenodd" class="s3" d="m27.1 29.9q1.3 1 2.4 2.3-0.1 0.4-0.4 0.5-1.2-1.2-2.5-2.4 0.3-0.1 0.5-0.4z"/>
		</g>
		<g id="Layer">
			<path id="Layer" fill-rule="evenodd" class="s31" d="m46.7 31q0.6 0.8 1.3 1.6 1.5 0.9 3.1 1.3-2.2 0.1-3.8-1.2-0.6-0.5-0.8-1.2 0-0.3 0.2-0.5z"/>
		</g>
		<g id="Layer">
			<path id="Layer" fill-rule="evenodd" class="s28" d="m59.9 31.1q0.2 0 0.3 0.1 0.1 0.7-0.4 1.4-1.7 1.5-4.1 1.4 1.4-0.4 2.8-1.3 0.9-0.6 1.4-1.6z"/>
		</g>
		<g id="Layer">
			<path id="Layer" fill-rule="evenodd" class="s3" d="m26 31.5q0.1 0 0.1 0 0.1 0.3 0.2 0.6-0.4 0.2-0.9 0.5-0.3 0.6 0.4 0.6 0.3-0.2 0.7-0.6 1.3-0.6 1.7 0.8-0.3 1.5-1.8 1.6 0-0.2-0.1-0.5 0.7-0.2 1-0.7 0.4-0.6-0.3-0.5-0.6 0.4-1.4 0.7-1.4-0.4-0.6-1.7 0.4-0.6 1-0.8z"/>
		</g>
		<g id="Layer">
			<path id="Layer" fill-rule="evenodd" class="s32" d="m53.2 31.5q0.1 0 0.2 0-0.1 0.4-0.2 0z"/>
		</g>
		<g id="Layer">
			<path id="Layer" fill-rule="evenodd" class="s33" d="m54.1 31.5q0.2 0 0.3 0.2-0.2 0.2-0.3-0.2z"/>
		</g>
		<g id="Layer">
			<path id="Layer" fill-rule="evenodd" class="s34" d="m52.4 31.9q0.2 0 0 0.2 0-0.1 0-0.2z"/>
		</g>
		<g id="Layer">
			<path id="Layer" fill-rule="evenodd" class="s35" d="m52.8 31.9q0.3 0.1 0 0.2-0.2 0 0-0.2z"/>
		</g>
		<g id="Layer">
			<path id="Layer" fill-rule="evenodd" class="s36" d="m53.6 31.9q0.3 0 0.1 0.2-0.1-0.1-0.1-0.2z"/>
		</g>
		<g id="Layer">
			<path id="Layer" fill-rule="evenodd" class="s37" d="m54.1 31.9q0.3 0 0.2 0.3-0.1-0.1-0.3-0.2 0.1 0 0.1-0.1z"/>
		</g>
		<g id="Layer">
			<path id="Layer" fill-rule="evenodd" class="s38" d="m54.6 32q0.2 0 0 0.3 0-0.1 0-0.3z"/>
		</g>
		<g id="Layer">
			<path id="Layer" fill-rule="evenodd" class="s39" d="m53.3 32.3q0.2 0.1 0 0.3-0.2-0.1 0-0.3z"/>
		</g>
		<g id="Layer">
			<path id="Layer" fill-rule="evenodd" class="s40" d="m54.1 32.3q0.1 0.1 0.3 0.2 0.1 0.1 0 0.1-0.2 0-0.4-0.2 0.1 0 0.1-0.1z"/>
		</g>
		<g id="Layer">
			<path id="Layer" fill-rule="evenodd" class="s41" d="m54.6 32.5q0.2 0 0.2 0.2-0.1 0-0.2 0 0-0.1 0-0.2z"/>
		</g>
		<g id="Layer">
			<path id="Layer" fill-rule="evenodd" class="s28" d="m46.7 32.6q1.9 1.6 4.5 1.6-1.7 0.5-3.4 0.1-1.2-0.5-1.1-1.7z"/>
		</g>
		<g id="Layer">
			<path id="Layer" fill-rule="evenodd" class="s42" d="m42.7 32.6q0.9 0 1.7 0.5-0.1-0.3-0.1-0.5 0.9 1.3 1.9 2.4 0.8 1.3 0.1 2.5-0.6 0.4-0.9 0.9-0.9 1-1.9 1.8 1.7-0.4 2.8-1.6 0.1-0.3 0.1-0.5 0.3-0.4 0.5 0.1 0.5 2.3-1.4 3.6-2.4 1.5-5.1 2.2-0.6 0.1-1.4 0.3 0.7 0.1 1 0.6 0.4 1.3-0.8 1.6 0.9 0.7 0.3 1.7 0.3 0.9-0.2 1.8 0.2 0.5 0.4 0.9 0.7-0.9 1.9-0.6 0.5 0.1 1.1 0.5-1.3 0.9-1.9 2.3-0.1 0.2 0 0.5 1.3-1.6 3.5-1.2-1 0.8-1.4 1.9-0.2 0.4-0.2 0.9 0.2 0.8 0.2 1.6-0.3 0.6-0.8 0.8 0.1 0.2 0.1 0.6 2.4 0.4 1.3 2.6-1 1-2.3 0.3 0 1 0.8 1.7 1.1 1.2 2.4 2.2-0.2-0.8 0.2-1.5 0.3-0.2 0.7-0.3-0.7-0.5-0.9-1.1-0.4-1.2 0.6-2 0.2-0.1 0.5-0.1 0-0.1 0-0.2-0.5-1.2-0.1-2.4 0.4-0.5 1.1-0.6-0.8-1.1-0.3-2.4 0.4-0.8 1.3-0.8-0.3-1.6 1.2-2.2 1-0.3 1.7 0.6 0.1 1-0.6 1.8-0.1 0.1 0 0.2 0.3 0.4 0.6 1 0-0.3-0.1-0.5 0.4-0.1 0.7-0.1-0.4-1.5-0.1-3.1 0.2-0.5 0.4-1.1 1.6-1.9 2.2-4.4 0.2-0.1 0.5 0 0.4 1 0.7 1.9 1 1.6 1.8 3.2 0.2 0.4 0.3 0.9 0.9-0.9 2-0.2 0.6 0.5 0.8 1.4-0.1 0.2-0.1 0.6 1.1 0.1 1.5 1.1 0.1 1.2-0.5 2.1 1.7 0.2 1.3 1.9-0.2 0.5-0.3 1.1 0 0.1 0 0.2 1 0.2 1.2 1.1 0.2 0.9-0.4 1.6-0.3 0.3-0.6 0.5 0.7 0.2 0.9 0.9 0 0.2 0 0.4 0 0.2 0 0.5 1.6-1.1 2.8-2.7 0.4-0.5 0.4-1.2-1.3 0.7-2.3-0.3-1.1-2.2 1.3-2.6 0-0.4 0.1-0.6-0.5-0.2-0.8-0.8 0-0.8 0.2-1.6-0.1-1.1-0.8-2-0.3-0.4-0.8-0.8 2.2-0.4 3.5 1.2 0-0.8-0.5-1.5-0.7-0.7-1.4-1.3 0.9-0.7 2.1-0.5 0.6 0.2 0.9 0.6 0.2-0.4 0.4-0.9-0.5-0.9-0.2-1.8-0.6-1 0.3-1.7-1.2-0.3-0.8-1.6 0.3-0.4 0.9-0.6-3-0.6-5.6-2-1.4-0.6-2-2-0.2-0.7-0.2-1.3 0-0.5 0-0.8 0.2-0.5 0.5-0.1 0 0.2 0.1 0.5 1.1 1.2 2.8 1.6-1.4-1-2.3-2.4-0.3 0-0.5-0.3-0.7-1.2 0.1-2.5 1-1.1 1.9-2.4 0 0.2-0.1 0.5 0.4-0.2 0.8-0.4 1.7-0.4 2.1 1.4 0.2 0.8-0.4 1.3-0.2 0.1-0.3 0.2-0.8 0-1.5 0-0.5 0.2-0.2 0.4 0.7 0.7 1.7 1.1 1.8 0.5 3.6 1 0.6 0.2 1.2 0.4-1.2-0.9-1.1-2.4 0.9-1.9 2.7-1 0.7 0.5 0.2 1.1-0.5 0.2-0.9 0.4 0.2 0.1 0.4 0.3 1.4 0.5 2.7 1.2 1.4 0.7 1.7 2.2 0.2 0.9 0.2 1.8 0.5-0.4 1.1-0.3 0.8 0.2 1.4 0.7 0.7 0.7 0.3 1.5-0.3 0.1-0.5 0.1-0.4-0.1-0.9-0.1-0.1 0-0.3 0-0.1 2.4 0.9 4.6 0.3 0.1 0.7 0-0.5-0.5-0.7-1.2 0.2-1.3 1.4-2 1.4-0.3 2 0.9 0.1 0.5-0.3 0.8-0.6 0-1-0.1-0.1 0.6 0.1 1.1 0.3 0.7 0.8 1.4-0.1 0.2-0.2 0.3-0.5 0.2-0.9 0.4 1.2 0 2.3 0.5 0.3 0.5 0.2 1.3-0.2 0-0.4 0.1-0.5 0.1-0.9 0.3 0.7 0.2 1.4 0.7 0.1 0.1 0.2 0.4 0.1 1 0 2-0.3 1.3-1.6 1.2-0.8-0.2-0.6-1 0.3-0.5 0.5-1.1-0.1 0-0.2 0-0.5 1.6-1.4 3 0.1 0.1 0.1 0.1 1-0.8 2.2-0.4 0.9 0.7 0.8 1.8-0.2 1.7-1.7 1-0.5-0.2-0.7-0.6-1.1 0.9-2.1 1.8 0.7-0.2 1.4-0.3 2.5-0.2 2 2.2-0.2 1.2-1.5 1.4-0.5 0-0.9 0 0.1 0.7 0.1 1.4 0.1-0.1 0.2-0.3 0.3 0 0.6 0 0.1 1.2-0.2 2.3 0.1 0 0.2 0 0.3 2.4-2 3.2 0.1 1 0.1 1.9-0.6 1.6-2.3 1.4-0.7-0.2-1.1-0.9 0 1.1-0.5 2.2-1.1 1.1-2.8 1.1-0.8-0.1-1.3-0.9-0.2-0.3-0.3-0.9-1.2 1.3-3 1.6-1.2 0.1-2-0.8-0.8-1.4-0.2-3 0.3-0.6 0.8-1.2 0.1 0.1 0.3 0.2-0.1 1.2 0.1 2.3 0.5 1.5 1.9 0.8 0.8-0.5 0.6-1.4 0.1-1.4-0.8-2.4-4.5-0.6-7.7 2.5-1.3 0.3-2.6 0.4 1.3 0.1 2.6 0.3 1.2 0.2 2.4-0.2 0.4-0.2 0.8-0.5 0.8 2.4 1.5 4.9 1 1.9 1.9 3.7-0.6 0.4-1.1 0.4-4.2-0.4-8.1 0.7-1.7 0.6-3.3 1.2-2.8-1.1-5.6-1.8-0.9 0-1.6-0.1-2.1 0-4.2 0-0.6 0-1-0.4 0.8-1.8 1.6-3.5 0.8-2.6 1.7-5.1 0.5 0.5 1.3 0.7 0.9 0.1 1.7 0 1.6-0.2 3.1-0.3-1.3-0.1-2.5-0.4-3.3-3.1-7.7-2.5-1.2 1.3-0.7 3.2 0.6 1.1 1.8 0.6 0.5-0.2 0.6-0.8 0.2-1.1 0.1-2.3 0.2-0.1 0.3-0.2 1.3 1.5 1 3.3-0.4 1.3-1.7 1.7-2.1 0-3.7-1.6-0.5 2.3-2.8 1.6-1.3-0.3-1.9-1.5-0.1-0.8-0.2-1.6-0.9 1.2-2.3 0.8-0.9-0.5-1.1-1.3 0-0.9 0.1-1.8 0 0 0-0.1-2.3-0.8-2-3.2 0.1 0 0.2 0-0.4-1.1-0.1-2.3 0.5-0.1 0.7 0.3 0-0.7 0.1-1.4-2.9 0.1-2.4-2.7 0.2-0.8 1-0.9 0.4-0.1 1 0 0.7 0.1 1.4 0.3-1-0.9-2.1-1.8-0.6 0.9-1.8 0.7-0.5-0.3-0.6-1.1-0.1-2.2 2.1-1.9 0.5 0.2 0.9 0.5-0.3-0.7-0.7-1.3-0.3-0.9-0.6-1.8-0.1 0-0.2 0 0.2 0.6 0.5 1.1 0.2 0.9-0.8 1.1-1.2-0.2-1.4-1.3-0.1-0.2-0.1-0.6-0.3-2.2 1.8-2.5-0.7 0-1.4-0.4-0.1-0.8 0.3-1.4 1-0.4 2.2-0.4-0.4-0.2-0.9-0.4-0.1-0.1-0.2-0.3 0.6-0.9 0.9-1.8 0-0.3 0-0.7-0.4 0.1-1 0.1-0.3-0.2-0.3-0.7 0.4-1.2 1.8-1.1 1.4 0.6 1.6 2.1-0.2 0.7-0.7 1.2 0.4 0.1 0.7 0 1-2.2 0.9-4.6-0.2 0-0.4 0-0.4 0-0.8 0.1-0.7 0-0.7-0.6 0.1-0.8 1-1.2 0.4-0.3 0.9-0.5 0.6-0.1 1.1 0.3-0.1-1.7 0.9-3.3 0.5-0.5 1-0.7 1.5-0.8 3-1.5 0-0.1 0-0.1-0.7-0.1-1-0.5-0.1-0.3 0.1-0.5 0.9-0.9 2-0.6 1.3 0.8 0.9 2.3-0.4 0.8-1 1.3 0.9-0.3 1.8-0.6 1.4-0.3 2.9-0.7 1-0.4 1.8-1.2 0.3-0.2-0.2-0.4-0.8 0-1.6-0.1-0.7-0.4-0.6-1 0-0.8 0.6-1.6 0.2-0.2 0.6-0.3z"/>
		</g>
		<g id="Layer">
			<path id="Layer" fill-rule="evenodd" class="s26" d="m59.9 32.6q0.3 1.1-0.9 1.7-1.8 0.5-3.5-0.1 1.4 0 2.8-0.5 0.9-0.4 1.6-1.1z"/>
		</g>
		<g id="Layer">
			<path id="Layer" fill-rule="evenodd" class="s19" d="m52.8 32.7q0.2 0 0 0.2-0.1-0.1 0-0.2z"/>
		</g>
		<g id="Layer">
			<path id="Layer" fill-rule="evenodd" class="s43" d="m54.1 32.7q0.3 0 0.3 0.3-0.3-0.1-0.3-0.3z"/>
		</g>
		<g id="Layer">
			<path id="Layer" fill-rule="evenodd" class="s36" d="m53.3 32.7q0.2 0 0 0.2-0.2-0.1 0-0.2z"/>
		</g>
		<g id="Layer">
			<path id="Layer" fill-rule="evenodd" class="s44" d="m54.6 32.9q0.1 0 0.2 0 0 0.2 0 0.3-0.1 0-0.2 0 0-0.1 0-0.3z"/>
		</g>
		<g id="Layer">
			<path id="Layer" fill-rule="evenodd" class="s45" d="m52 32.9q0.2 0.1 0.2 0.3-0.2 0-0.3-0.1 0.1 0 0.1-0.2z"/>
		</g>
		<g id="Layer">
			<path id="Layer" fill-rule="evenodd" class="s46" d="m42.4 73.6q0.1-0.1 0.1-0.3 0.6 1.5-0.4 2.5-1.1 0.6-2.2 0.2-1.4-0.8-2.5-2 0 1-0.5 1.9-0.5 0.6-1.3 0.4-2.3-0.3-2.2-2.6 0.2-1.8 1.5-3 1.2-0.9 2.6-1.6-0.3-0.3-0.8-0.3-0.5-0.1-1-0.2 0.4-0.1 0.7-0.2-1.1-0.6-2.3-1.4-0.6-0.3-1.2-0.9 1.1 0.4 2.2 0.7 0.6-0.4 0-0.7-2.6-1.2-5.2-2.3-0.5-0.4-0.8-1.1-0.5-0.5-1-0.4-0.5 0.7 0.1 1.4 0 0.2 0 0.4-2-0.1-1.7-2 0.3-0.7 1.1-0.7 1.4 0.2 2.7 1 1.2 0.8 2.1 2 0.6 0.4 1.3 0.2 0.3 0 0.4-0.3-1.1-0.8-2.2-1.7-2.4-1.9-4.6-4-0.1 0-0.1 0.1-0.2 1.1-1.4 1-0.2-0.4-0.2-0.9 0.1-1.4 1.5-1.1 0.8 0.3 1.3 1.1 0.9 1.2 1.9 2.1 0.5 0.4 1.2 0.7 0.1 0.1 0.2 0 1-1 0.2-2.2-0.2-0.4-0.6-0.7-1.1-0.6-1.4-1.7-0.3-0.1-0.4 0 0 0.7 0 1.4-0.1 0.2-0.2 0-1.4-1.7-2-3.9-0.3-0.5-0.9-0.3-0.5 0.1-0.3 0.8 0.1 0.4 0.3 1 0 0.4-0.4 0.3-0.6-0.3-0.7-0.9-0.1-0.9 0-1.8 0.9-1.1 2-0.1 1.3 1.5 2.8 2.9 0.3 0.2 0.5 0.2 0.2-0.1 0.4-0.3-1.8-2-3.5-4-0.2-0.1-0.3-0.2-0.9-0.2-1.6-0.5-0.1-0.5 0.4-0.7 1.2-0.3 2.4 0 0.9 0.5 1.1 1.4 0.5 1 0.6 2.1 0.2 0.2 0.6 0.1 0-0.4-0.1-0.9-0.1-2.2-2-3.5-0.7-0.4-1.4-0.7 0.4-0.8 0.7-1.5 0.2-0.8-0.1-1.5-0.1-0.1-0.1-0.1-0.5 0.2-1 0.2 0.1-0.5 0.6-0.6 1.1-0.1 1.4 0.8 0.1 0.4 0.3 0.7-0.5 0.8-1 1.4-0.2 0.6 0.4 0.5 0.5 0 1.1-0.2-0.1 0-0.1-0.1 0.2 0.2 0.5 0 0.8-1.7 1-3.8 0-0.6 0.1-1.2-0.2-0.4-0.6-0.5-0.7-0.1-1.3 0.1 0-0.5 0.4-0.7 0.5-0.4 1.2-0.5 0.3 0 0.6 0.3 0.3 0.4 0.5 1 0.1-0.1 0.4-0.1-0.1-0.9-0.2-1.9 0-1.3 0.8-2.4 0.8-0.8 1.8-1.2 0.9-0.4 1.8-0.9 0.3 0 0.6-0.3 0.3-0.6-0.3-0.9-1.5-0.3 0.1-0.6 1.3 0.1 1.1 1.5-0.2 0.5-0.5 0.9-1 1-2.2 1.8-0.5 0.5-0.8 1.1 0.2 0.3 0.4 0.4 1.8-1.9 4.2-2.7 1.8-0.3 3.5-0.9 1.1-0.4 2-1.4 0.1-0.8-0.7-1-0.7-0.1-1.6-0.1 0-0.1-0.1-0.1-0.1-2.5 2-1.3 1.1 0.9 0.8 2.4-0.2 0.9-0.9 1.6-3.1 1.2-5.7 3-4.2 3-5.9 7.8-1.2 4.6 0.6 8.9 2.2 5.1 6.3 8.9 2.8 2.4 6 4.4 2.4 1.5 4.8 3-1.1-0.1-2.1-0.3-3.4-3.2-8.1-2.6-0.7 0.6-1 1.5-0.5 1.4 0.1 2.7 1.1 1.3 2.6 0.6 0.8-0.8 0.8-1.9z"/>
		</g>
		<g id="Layer">
			<path id="Layer" fill-rule="evenodd" class="s46" d="m76.4 53.6q-0.1 0.5-0.1 0.9 0.4 0.1 0.6-0.1 0.1-1.5 1-2.8 0.5-0.7 1.2-0.8 0.7 0 1.6 0.1 0.8 0 0.7 0.7-0.7 0.3-1.4 0.4-0.3 0.1-0.5 0.3-1.7 2-3.5 4 0.2 0.2 0.4 0.3 1.2-0.8 2.2-1.9 0.5-0.6 1.1-1.2 1-1 1.9 0 0.4 1.2-0.1 2.4-0.3 0.4-0.8 0.4-0.1-0.1-0.1-0.3 0.2-0.6 0.3-1 0.1-1.1-0.9-0.8-0.2 0.1-0.3 0.3-0.6 2.2-2.1 4-0.1-0.3-0.1-0.6 0.1-0.4 0-0.9-0.1-0.1-0.4 0-0.3 1.1-1.4 1.7-1 0.7-0.9 2 0.1 0.3 0.2 0.4 0.2 0.2 0.3 0.5 0.1 0.1 0.2 0 1.3-0.5 2.2-1.6 0.7-1.1 1.5-1.9 0.7-0.5 1.7-0.4 0.6 0.4 0.5 1.1 0 0.5-0.2 0.9-0.7 0.2-1.1-0.4-0.2-0.4-0.3-0.8-2.3 2.1-4.7 4.1-1.1 0.9-2.2 1.7 0.1 0.3 0.4 0.3 0.7 0.1 1.3-0.2 1.5-2 3.8-2.8 0.7-0.2 1.4-0.1 1 0.5 0.7 1.5-0.5 1.2-1.7 1.1 0-0.6 0.3-0.9 0.2-1-0.7-0.9-0.6 0.4-0.9 1-0.2 0.2-0.4 0.5-2.6 1.1-5.2 2.3-0.1 0.1-0.2 0.3 0.1 0.2 0.2 0.4 1.1-0.3 2.2-0.7-0.5 0.5-1.2 0.9-1.2 0.7-2.3 1.4 0.3 0.2 0.7 0.2-0.5 0.1-1 0.2-0.6 0-0.8 0.4 2.2 0.8 3.4 2.5 1.1 1.8 0.3 3.7-0.6 0.7-1.5 0.8-1 0.4-1.6-0.3-0.5-0.9-0.5-1.9-0.9 0.8-1.9 1.6-1 0.6-2.2 0.5-1.3-0.4-1.2-1.8 0-0.5 0.2-1 0 0.2 0.1 0.3 0 1.1 0.8 1.9 0.5 0.4 1.2 0.3 1.7-0.5 1.7-2.3 0-1.7-1.1-2.8-4.8-0.8-8.2 2.6-0.9 0.2-1.9 0.2 4.5-2.7 8.8-5.7 4.3-3.3 7-8 2.4-4.2 2.2-8.9-0.5-3.9-2.9-6.9-2.3-2.9-5.4-4.6-1.9-1-3.8-1.8-1-0.9-0.9-2.4 0-1.4 1.4-1.9 1.1-0.5 1.4 0.7 0 0.5 0 0.9-0.1 0-0.2 0.1-0.8 0-1.6 0.1-0.7 0.2-0.6 1 1.3 1.4 3.2 1.8 3.8 0.5 6.5 3.2 0.2-0.1 0.4-0.4-0.3-0.6-0.8-1.1-1.2-0.8-2.2-1.8-0.3-0.4-0.5-0.9-0.2-1.3 1-1.5 1.7 0.2 0.2 0.6-0.7 0.8 0.2 1.2 1.6 0.7 3.2 1.5 0.9 0.7 1.2 2 0.1 0.4 0.1 0.9-0.1 1-0.2 2 0.3 0.1 0.5 0.1 0.1-0.8 0.7-1.2 1-0.2 1.7 0.5 0.2 0.3 0.2 0.6-0.6-0.1-1.3-0.1-0.4 0.1-0.6 0.5 0.2 2.1 0.7 4.1 0.2 0.5 0.6 1 0.2-0.1 0.2-0.1 0.1 0.1 0.1 0.2 0.8 0.2 1.4 0.1 0.1-0.3 0-0.5-0.5-0.6-1-1.4 0.2-0.9 0.9-1.4 0.8-0.4 1.3 0.3 0.1 0 0.1 0.2-0.6 0.1-1.1-0.2-0.3 0.9-0.1 1.8 0.3 0.6 0.7 1.3-0.7 0.3-1.4 0.7-1.9 1.3-2 3.5z"/>
		</g>
		<g id="Layer">
			<path id="Layer" fill-rule="evenodd" class="s4" d="m82.6 33.4q0.2 0 0.4 0 0.2 0.3 0.3 0.5-1 1.6-1.9 3.2-0.3-0.3-0.5-0.6 0.2-0.4 0.4-0.7-0.3-0.6-0.7-1.1-0.5 0-0.9 0.1-0.2-0.3-0.4-0.6 1.6-0.5 3.3-0.8z"/>
		</g>
		<g id="Layer">
			<path id="Layer" fill-rule="evenodd" class="s47" d="m51.4 33.4q1.9 0 3.7 0.1-1.7 2-3.6 4-0.1-0.2-0.1-0.3-0.1-1.9 0-3.8z"/>
		</g>
		<g id="Layer">
			<path id="Layer" fill-rule="evenodd" class="s48" d="m55.2 33.7q0.1 1.6 0 3.4-0.2 0.8-0.8 1.2-0.6 0.3-1 0.5-0.9-0.3-1.6-0.8-0.1-0.2 0-0.3 1.7-2 3.4-4z"/>
		</g>
		<g id="Layer">
			<path id="Layer" fill-rule="evenodd" class="s49" d="m46.8 33.8q1.2 1.1 2.8 0.9 0.8-0.2 1.6-0.2-1.7 0.9-3.6 0.4-0.6-0.1-0.9-0.7 0-0.2 0.1-0.4z"/>
		</g>
		<g id="Layer">
			<path id="Layer" fill-rule="evenodd" class="s50" d="m59.8 33.9q0.3 0.3 0 0.6-0.5 0.5-1.2 0.6-1.7 0.3-3.1-0.6 0.6 0.1 1.4 0.2 1.3 0.2 2.5-0.4 0.3-0.1 0.4-0.4z"/>
		</g>
		<g id="Layer">
			<path id="Layer" fill-rule="evenodd" class="s51" d="m82.1 34.1q0.2 0 0.3 0.1-0.4 0.5-0.6 0.9-0.3-0.2-0.6-0.6 0.1-0.1 0.1-0.1 0.5-0.1 0.8-0.3z"/>
		</g>
		<g id="Layer">
			<path id="Layer" fill-rule="evenodd" class="s3" d="m25.1 35.2q0 0.3 0 0.5 0.8 0 1.5 0-0.2 0.3-0.4 0.7-0.7 0.1-1.3 0.1-0.3 0.2-0.3 0.5 0.4 0.2 0.8 0.5-0.2 0.4-0.4 0.7-1.4-1-2.9-1.9 0.6-0.8 1.1-1.6 1-0.9 1.8 0.2 0.1 0.1 0.1 0.3z"/>
		</g>
		<g id="Layer">
			<path id="Layer" fill-rule="evenodd" class="s52" d="m51 34.8q0.1 0 0.2 0-1 0.8-2.1 1.1-1 0.2-1.7-0.4-0.1-0.2 0-0.5 1.8 0.7 3.6-0.2z"/>
		</g>
		<g id="Layer">
			<path id="Layer" fill-rule="evenodd" class="s53" d="m55.6 34.9q0 0 0.1-0.1 1.7 1 3.6 0.4-0.1 0.7-0.9 0.8-0.7 0.1-1.4-0.1-0.8-0.5-1.4-1z"/>
		</g>
		<g id="Layer">
			<path id="Layer" fill-rule="evenodd" class="s54" d="m23.8 35q1 0.1 0.6 1-0.3 0.2-0.5 0.6-0.3-0.3-0.8-0.6 0.3-0.5 0.7-1z"/>
		</g>
		<g id="Layer">
			<path id="Layer" fill-rule="evenodd" class="s55" d="m45.5 35q0.8 0.9 0.4 2.1-0.2 0.1-0.4 0.1-0.9 1.6-2.4 2.6-1.1 0.7-2.2 1.3 1.7-0.1 3.3-0.5 1.3-0.4 2.2-1.2 0 0.5-0.3 1-1.2 1.4-3 2.1-3.1 1.1-6.2 1.8-0.9 0.5-1.7 0.8 0.1 0 0.4 0-0.4 0.3-0.8 0.6-0.1 0.1 0 0.1 1.4-0.6 2.8-1 1-0.2 1.9 0.3 0.3 0.5-0.2 0.8-0.3 0.2-0.6 0.3-0.9-0.1-1.8 0-0.5 0.1-1.2 0.1 0.3 0.1 0.5 0.2-0.2 0.3-0.4 0.5 0.1 1.6 1.5 2.1 0.2 0.1 0.2 0 0.3-1.1 0.5-2.3 0.7 0 1.1 0.4 0.1 0.2 0 0.4-0.2 0.3-0.3 0.6 0.5 0.6 0.1 1.4-0.9 0-1.8 0-1.6 0.4-1.8 2 1.1-0.5 1.9-1 0.9-0.2 1.7 0.1 0.4 0.7-0.3 1.1-1.1 0.2-2.1 0.5-0.8 0.4-1.3 1.1 0 0.2 0.3 0.4 0.5-0.7 1.2-1 1-0.3 2-0.5 0 0.2 0 0.4 0.8-0.7 1.4-1.5 0.2-0.2 0.5-0.3 0.5-0.1 1.2 0-1 0.9-1.5 2.1-0.3 1.3-0.5 2.6 0.8-1.1 1.7-2 0.6-0.6 1.6-0.6-1 1.2-0.9 2.7 0.2 0.5 0.2 1-0.2 0.2-0.3 0.2-0.4 0.1-0.7 0.3-0.1 0.2 0 0.4 0.1 0.1 0.2 0.3-2.2 0.2-2.3 2.5 0.1 1.9 1.1 3.5 0.4 0.1 0.5-0.2-0.7-1.4-1.1-2.8-0.3-1.7 1.3-2.2 1.1-0.2 2.1 0.4 0.2 0.8-0.2 1.5-0.6 0.3-1.1 0.2-0.6-0.3-1-0.7-0.5 1.3 0.2 2.5 0.6 0.8 1.4 1.6 2.9 2.3 5.7 4.7 1.7 1.4 2.9 3.1 0 0.7 0 1.6-1.7-2.2-3.4-4.3-1-1.2-2.2-2-0.8-0.3-1.6-0.4-0.4 0-0.7 0.1 0.1-1-0.5-1.8-0.2 0.2-0.5 0.4 0.3 0.2 0.4 0.6 0.1 0.7 0 1.4 0.1 0.2 0.3 0.3 0.6-0.6 1.4-0.4 0.7 0.1 1.2 0.5 0.9 0.7 1.6 1.4 1.3 1.5 2.4 3.1 0.1 0 0 0.1-4.9-2.8-9.3-6.3-3.7-3.1-6-7.5-5-10.7 4.5-17.8 2.3-1.6 5.2-2.7 1.7-1.1 1.6-3.3z"/>
		</g>
		<g id="Layer">
			<path id="Layer" fill-rule="evenodd" class="s52" d="m51.1 35q0.1 0.1 0.1 0.2-1.2 1.3-2.9 1.7-0.5-0.2-0.5-0.9 1.9 0.3 3.3-1z"/>
		</g>
		<g id="Layer">
			<path id="Layer" fill-rule="evenodd" class="s55" d="m61.5 35q-0.1 1.8 1.1 3 0.3 0.2 0.5 0.3 5 1.8 8.5 5.7 4.3 5.4 2.4 12-1.4 3.9-4 7-2 2.5-4.6 4.4-3.8 2.9-7.9 5.2-0.1-0.1 0-0.1 1.1-1.6 2.4-3.1 0.7-0.7 1.6-1.4 0.9-0.7 2.1-0.5 0.2 0.2 0.5 0.4 0.2-0.1 0.3-0.3-0.1-0.7 0-1.4 0.1-0.4 0.4-0.6-0.3-0.2-0.5-0.4-0.6 0.8-0.5 1.8-1.2-0.2-2.4 0.4-1.1 0.8-2.1 1.9-1.5 2-3.2 4-0.1-0.8-0.1-1.4 1.2-1.6 2.8-3 2.8-2.4 5.7-4.7 0.7-0.7 1.3-1.4 0.8-1.3 0.3-2.7-0.4 0.3-0.9 0.6-1.7 0.4-1.4-1.4 0.4-0.5 1.1-0.6 2.5-0.3 2.3 2.2-0.4 1.4-1.1 2.8 0.3 0.5 0.6-0.1 0.9-1.4 1-3.2-0.1-2.3-2.3-2.5 0.1-0.2 0.3-0.5-0.1-0.1-0.1-0.2-0.6-0.1-1-0.5 0-0.5 0.2-1 0.1-1.5-0.9-2.7 1 0 1.6 0.6 0.9 0.9 1.7 2-0.2-1.3-0.5-2.6-0.5-1.2-1.5-2.1 0.1 0 0.1 0 0.7-0.1 1.3 0 0.8 1 1.7 1.8 0-0.2 0.1-0.4 0.8 0.3 1.6 0.5 0.9 0.3 1.5 1 0.2-0.2 0.3-0.3 0.1-0.1 0-0.2-0.7-0.8-1.7-1.1-0.8-0.2-1.7-0.4-0.7-0.4-0.3-1.1 1.5-0.6 2.8 0.5 0.4 0.2 0.8 0.4-0.2-1.6-1.8-2-0.9 0-1.8 0-0.4-0.8 0.1-1.4-0.9-1.4 0.8-1.4 0.2 1.2 0.5 2.3 0 0.1 0 0.1 1.6-0.6 1.7-2.2-0.2-0.3-0.5-0.5 0.2-0.1 0.5-0.2-0.6 0.1-1.1-0.1-0.9-0.1-1.8 0-0.5-0.1-0.9-0.6-0.1-0.4 0.3-0.6 0.8-0.4 1.7-0.2 1.4 0.5 2.9 1-0.5-0.4-0.9-0.7 0.2 0 0.4 0-2.9-1.1-6-2-2-0.5-3.8-1.6-1-0.7-1.4-1.8-0.1-0.2 0-0.3 1.9 1.3 4.2 1.6 0.6 0.1 1.3 0.1-2.2-1.1-3.9-2.8-0.5-0.5-0.7-1.1-0.4 0-0.5-0.3-0.2-1.1 0.5-1.9z"/>
		</g>
		<g id="Layer">
			<path id="Layer" fill-rule="evenodd" class="s49" d="m55.5 35.1q0.9 0.7 1.9 1 0.4 0.1 0.7 0.1 0.3 0 0.7-0.1 0.2 0.9-0.7 0.9-1.5-0.5-2.6-1.7 0-0.1 0-0.2z"/>
		</g>
		<g id="Layer">
			<path id="Layer" fill-rule="evenodd" class="s56" d="m25.1 35.2q0.1 0.2 0.1 0.5 0.8-0.1 1.4 0-0.7 0-1.5 0 0-0.2 0-0.5z"/>
		</g>
		<g id="Layer">
			<path id="Layer" fill-rule="evenodd" class="s57" d="m51.2 35.7q0 0.8 0 1.6-0.1 0-0.3 0 0 0.4-0.2 0.6-0.4 0.1-0.8 0.1-0.3 0.3-0.3 0.6-0.1 0.5 0.1 0.9 0.2 0.7 0.5 1.2-0.1 0.5-0.4 0.8-0.1 0.4 0.3 0.8 0.1 0.1 0 0.3-0.6-0.3-0.9-0.9 0-0.1 0-0.3 0.3-0.4 0.5-0.8-0.3-0.5-0.6-1-0.4-1 0.1-1.9 0.9-1 2-2z"/>
		</g>
		<g id="Layer">
			<path id="Layer" fill-rule="evenodd" class="s58" d="m55.5 35.8q1 0.7 1.6 1.7 1 0.8 0.7 2-0.4 0.5-0.8 1 0 0.2 0 0.5 0.5 0.4 0.3 0.8-0.3 0.5-0.7 0.8-0.1-0.1 0-0.2 0.6-0.7 0-1.2-0.1-0.2-0.1-0.5 0.6-0.9 0.5-2.2 0-0.2-0.2-0.4-0.4-0.1-0.8-0.1-0.2-0.3-0.2-0.6-0.2 0-0.4 0 0.1-0.8 0.1-1.6z"/>
		</g>
		<g id="Layer">
			<path id="Layer" fill-rule="evenodd" class="s3" d="m84.4 36q0.2-0.1 0.3 0 0.4 0.7 0.8 1.4 0.3 2.3-2 2.3-0.6-0.3-1-0.7-0.5-0.7-0.8-1.4 1.4-0.8 2.7-1.6z"/>
		</g>
		<g id="Layer">
			<path id="Layer" fill-rule="evenodd" class="s59" d="m49.8 36.6q0 0 0.1 0-0.3 0.4-0.5 0.7-0.5 0.7-1.1 0.1-0.1-0.2-0.1-0.3 0.8-0.1 1.6-0.5z"/>
		</g>
		<g id="Layer">
			<path id="Layer" fill-rule="evenodd" class="s49" d="m56.9 36.6q0.7 0.5 1.5 0.6 0 0.7-0.7 0.5-0.6-0.5-0.8-1.1z"/>
		</g>
		<g id="Layer">
			<path id="Layer" fill-rule="evenodd" class="s5" d="m84.3 36.9q0.1 0 0.1 0.1 0.3 0.2 0.4 0.6 0.1 1.5-1.4 1.3-0.5-0.4-0.8-0.9 0.8-0.6 1.7-1.1z"/>
		</g>
		<g id="Layer">
			<path id="Layer" fill-rule="evenodd" class="s3" d="m21.6 37.2q0.4 0 0.6 0.3-0.4 0.8-0.8 1.6 0.3 0.2 0.7 0.3 0.3-0.8 0.7-1.4 0.3 0.2 0.5 0.3-0.3 0.8-0.7 1.4 0.2 0.2 0.6 0.4 0.5-0.8 0.9-1.7 0.3 0.1 0.6 0.4-0.7 1.1-1.2 2.2-1.6-0.8-3.1-1.6 0.7-1.1 1.2-2.2z"/>
		</g>
		<g id="Layer">
			<path id="Layer" fill-rule="evenodd" class="s60" d="m51.1 37.7q0.4 0.1 0.1 0.4-0.3-0.1-0.1-0.4z"/>
		</g>
		<g id="Layer">
			<path id="Layer" fill-rule="evenodd" class="s61" d="m55.5 37.8q0.3 0.1 0 0.4-0.3-0.2 0-0.4z"/>
		</g>
		<g id="Layer">
			<path id="Layer" fill-rule="evenodd" class="s53" d="m50.8 38.1q0.4 0.1 0.1 0.3-0.4-0.1-0.1-0.3z"/>
		</g>
		<g id="Layer">
			<path id="Layer" fill-rule="evenodd" class="s62" d="m51.4 38q0.4 0.2 0 0.4-0.2-0.1 0-0.4z"/>
		</g>
		<g id="Layer">
			<path id="Layer" fill-rule="evenodd" class="s63" d="m50.1 38.3q0.1-0.2 0.3 0-0.1 0-0.2 0.1-0.1-0.1-0.1-0.1z"/>
		</g>
		<g id="Layer">
			<path id="Layer" fill-rule="evenodd" class="s50" d="m55.8 38.2q0.4 0.1 0 0.2-0.2-0.1 0-0.2z"/>
		</g>
		<g id="Layer">
			<path id="Layer" fill-rule="evenodd" class="s64" d="m55.1 38.2q0.4 0.1 0.1 0.2-0.4-0.1-0.1-0.2z"/>
		</g>
		<g id="Layer">
			<path id="Layer" fill-rule="evenodd" class="s52" d="m56.3 38.3q0.6-0.1 0.1 0.1-0.2-0.1-0.1-0.1z"/>
		</g>
		<g id="Layer">
			<path id="Layer" fill-rule="evenodd" class="s65" d="m49.9 38.3q0.4 0.2 0 0.6-0.2-0.3 0-0.6z"/>
		</g>
		<g id="Layer">
			<path id="Layer" fill-rule="evenodd" class="s66" d="m50.5 38.4q0.3 0.1 0.1 0.4-0.3-0.2-0.1-0.4z"/>
		</g>
		<g id="Layer">
			<path id="Layer" fill-rule="evenodd" class="s49" d="m51.2 38.4q0.3 0.2 0 0.4-0.3-0.2 0-0.4z"/>
		</g>
		<g id="Layer">
			<path id="Layer" fill-rule="evenodd" class="s67" d="m51.7 38.4q0.4 0.1 0.1 0.4-0.2-0.2-0.1-0.4z"/>
		</g>
		<g id="Layer">
			<path id="Layer" fill-rule="evenodd" class="s60" d="m56.7 38.4q0.3 0.2 0.1 0.5-0.4-0.2-0.1-0.5z"/>
		</g>
		<g id="Layer">
			<path id="Layer" fill-rule="evenodd" class="s68" d="m54.8 38.4q0.3 0.2 0.1 0.5-0.3-0.2-0.1-0.5z"/>
		</g>
		<g id="Layer">
			<path id="Layer" fill-rule="evenodd" class="s69" d="m55.5 38.4q0.3 0.2 0 0.5-0.3-0.2 0-0.5z"/>
		</g>
		<g id="Layer">
			<path id="Layer" fill-rule="evenodd" class="s70" d="m56 38.4q0.4 0.2 0.1 0.5-0.2-0.2-0.1-0.5z"/>
		</g>
		<g id="Layer">
			<path id="Layer" fill-rule="evenodd" class="s71" d="m54.3 38.5q0.3 0.1 0 0.3-0.1-0.1 0-0.3z"/>
		</g>
		<g id="Layer">
			<path id="Layer" fill-rule="evenodd" class="s72" d="m50.2 38.7q0.4 0.3 0 0.5-0.1 0-0.1-0.1 0-0.2 0.1-0.4z"/>
		</g>
		<g id="Layer">
			<path id="Layer" fill-rule="evenodd" class="s73" d="m51.4 38.8q0.3 0.1 0 0.4-0.2-0.2 0-0.4z"/>
		</g>
		<g id="Layer">
			<path id="Layer" fill-rule="evenodd" class="s64" d="m52.1 38.7q0.3 0.2 0.1 0.5-0.4-0.2-0.1-0.5z"/>
		</g>
		<g id="Layer">
			<path id="Layer" fill-rule="evenodd" class="s74" d="m50.8 38.8q0.4 0.1 0.1 0.4-0.2-0.2-0.1-0.4z"/>
		</g>
		<g id="Layer">
			<path id="Layer" fill-rule="evenodd" class="s75" d="m52.6 38.8q0 0.1 0 0.3-0.1 0.6-0.2 1.4-0.1 0-0.4 0 0.2-1 0.6-1.7z"/>
		</g>
		<g id="Layer">
			<path id="Layer" fill-rule="evenodd" class="s76" d="m53.6 38.9q0.1 0 0.2 0.2 0.1 0.6 0.1 1.3-0.1 0-0.2 0-0.1-0.8-0.1-1.5z"/>
		</g>
		<g id="Layer">
			<path id="Layer" fill-rule="evenodd" class="s77" d="m54.6 38.8q0.3 0.2 0 0.5-0.1 0-0.2-0.2 0.1-0.1 0.2-0.3z"/>
		</g>
		<g id="Layer">
			<path id="Layer" fill-rule="evenodd" class="s78" d="m56.3 38.9q0.2 0 0.4 0.2-0.3 0.3-0.5-0.1 0.1-0.1 0.1-0.1z"/>
		</g>
		<g id="Layer">
			<path id="Layer" fill-rule="evenodd" class="s79" d="m52.8 38.9q0.2 0.2 0.2 0.5-0.1 0.5-0.1 1-0.1 0-0.2 0 0.1-0.8 0.1-1.5z"/>
		</g>
		<g id="Layer">
			<path id="Layer" fill-rule="evenodd" class="s80" d="m53.9 38.7q0.6 0.8 0.7 1.8-0.1 0-0.4-0.1-0.1-0.9-0.3-1.7z"/>
		</g>
		<g id="Layer">
			<path id="Layer" fill-rule="evenodd" class="s74" d="m55.1 38.9q0.4 0.1 0.1 0.3-0.2-0.1-0.1-0.3z"/>
		</g>
		<g id="Layer">
			<path id="Layer" fill-rule="evenodd" class="s50" d="m55.8 38.9q0.2 0.1 0 0.3-0.2-0.1 0-0.3z"/>
		</g>
		<g id="Layer">
			<path id="Layer" fill-rule="evenodd" class="s81" d="m53.2 39q0.1 0 0.3 0 0 0.7 0 1.4-0.2 0-0.4 0 0.1-0.7 0.1-1.4z"/>
		</g>
		<g id="Layer">
			<path id="Layer" fill-rule="evenodd" class="s82" d="m50.5 39.2q0.5 0.2 0 0.4-0.1-0.1-0.2-0.2 0.1-0.1 0.2-0.2z"/>
		</g>
		<g id="Layer">
			<path id="Layer" fill-rule="evenodd" class="s83" d="m51.2 39.2q0.3 0.1 0 0.3-0.2-0.1 0-0.3z"/>
		</g>
		<g id="Layer">
			<path id="Layer" fill-rule="evenodd" class="s74" d="m51.7 39.2q0.5 0.1 0.1 0.4-0.4-0.2-0.1-0.4z"/>
		</g>
		<g id="Layer">
			<path id="Layer" fill-rule="evenodd" class="s84" d="m49.9 39.2q0.3 0.2 0.1 0.4-0.2-0.2-0.1-0.4z"/>
		</g>
		<g id="Layer">
			<path id="Layer" fill-rule="evenodd" class="s13" d="m54.8 39.2q0.5 0.2 0 0.4-0.1-0.1-0.2-0.2 0.1 0 0.2-0.2z"/>
		</g>
		<g id="Layer">
			<path id="Layer" fill-rule="evenodd" class="s85" d="m55.5 39.2q0.3 0.2 0 0.4-0.3-0.2 0-0.4z"/>
		</g>
		<g id="Layer">
			<path id="Layer" fill-rule="evenodd" class="s82" d="m56 39.2q0.5 0.2 0.1 0.4-0.3-0.2-0.1-0.4z"/>
		</g>
		<g id="Layer">
			<path id="Layer" fill-rule="evenodd" class="s86" d="m56.7 39.4q0.2 0 0.1 0.2-0.1-0.1-0.2-0.1 0.1-0.1 0.1-0.1z"/>
		</g>
		<g id="Layer">
			<path id="Layer" fill-rule="evenodd" class="s77" d="m50.8 39.5q0.4 0.2 0 0.4-0.1 0-0.1-0.1 0.1-0.2 0.1-0.3z"/>
		</g>
		<g id="Layer">
			<path id="Layer" fill-rule="evenodd" class="s77" d="m51.4 39.5q0.4 0.1 0.1 0.4-0.3-0.1-0.1-0.4z"/>
		</g>
		<g id="Layer">
			<path id="Layer" fill-rule="evenodd" class="s77" d="m50.1 39.6q0.4 0.1 0.1 0.3-0.1-0.1-0.1-0.3z"/>
		</g>
		<g id="Layer">
			<path id="Layer" fill-rule="evenodd" class="s87" d="m55.1 39.6q0.2-0.1 0.2 0.1 0 0.2-0.2 0.3-0.2-0.2 0-0.4z"/>
		</g>
		<g id="Layer">
			<path id="Layer" fill-rule="evenodd" class="s87" d="m55.8 39.6q0.1 0 0.2 0.2-0.2 0.3-0.3-0.1 0-0.1 0.1-0.1z"/>
		</g>
		<g id="Layer">
			<path id="Layer" fill-rule="evenodd" class="s88" d="m56.4 39.6q0.4 0.1 0.1 0.4-0.3-0.1-0.1-0.4z"/>
		</g>
		<g id="Layer">
			<path id="Layer" fill-rule="evenodd" class="s79" d="m51.2 39.8q0.4 0.3 0 0.6-0.3-0.3 0-0.6z"/>
		</g>
		<g id="Layer">
			<path id="Layer" fill-rule="evenodd" class="s74" d="m50.5 39.9q0.3 0.2 0 0.4-0.2-0.2 0-0.4z"/>
		</g>
		<g id="Layer">
			<path id="Layer" fill-rule="evenodd" class="s89" d="m55.5 39.9q0.4 0.3 0 0.6-0.1-0.1-0.2-0.3 0.1-0.1 0.2-0.3z"/>
		</g>
		<g id="Layer">
			<path id="Layer" fill-rule="evenodd" class="s70" d="m56 40.1q0.4 0 0.1 0.3-0.2-0.1-0.1-0.3z"/>
		</g>
		<g id="Layer">
			<path id="Layer" fill-rule="evenodd" class="s3" d="m20 40.3q0.1 0 0.2 0.1 1.2 1.3 2.5 2.5 0 0.2-0.1 0.6-2 0-3.8 0 0.1-0.4 0.3-0.7 1.3-0.1 2.5-0.1-0.9-0.9-1.8-1.7 0-0.4 0.2-0.7z"/>
		</g>
		<g id="Layer">
			<path id="Layer" fill-rule="evenodd" class="s87" d="m50.8 40.3q0.2 0.1 0.3 0.3-0.3 0.1-0.4-0.1 0-0.1 0.1-0.2z"/>
		</g>
		<g id="Layer">
			<path id="Layer" fill-rule="evenodd" class="s84" d="m51.4 40.3q0.3 0.2 0 0.3-0.1 0-0.1 0 0.1-0.1 0.1-0.3z"/>
		</g>
		<g id="Layer">
			<path id="Layer" fill-rule="evenodd" class="s90" d="m55.1 40.4q0.2 0 0 0.2-0.1-0.1 0-0.2z"/>
		</g>
		<g id="Layer">
			<path id="Layer" fill-rule="evenodd" class="s23" d="m55.8 40.4q0.2 0 0.1 0.2-0.4 0-0.1-0.2z"/>
		</g>
		<g id="Layer">
			<path id="Layer" fill-rule="evenodd" class="s91" d="m52.4 40.6q1.9 0 3.7 0.4 0.2 0.7 0.1 1.4-2.8-0.7-5.7 0-0.2-0.7 0-1.4 0.9-0.3 1.9-0.4z"/>
		</g>
		<g id="Layer">
			<path id="Layer" fill-rule="evenodd" class="s3" d="m87 40.7q0.1 0 0.2 0.1 0.2 0.4 0.2 0.9-0.5 0.5-0.8 1.2 0.7 0 1.5 0.2 0.2 0.4 0.3 0.8-1.2-0.2-2.3-0.4-0.7 0.2-1.4 0.5-0.2-0.4-0.2-0.8 0.6-0.3 1.1-0.4 0.8-1.1 1.4-2.1z"/>
		</g>
		<g id="Layer">
			<path id="Layer" fill-rule="evenodd" class="s92" d="m53.3 41q0.1 0 0.2 0.1 0 0.1-0.1 0.1 0.2 0.1 0 0.2 0.1 0.1 0.1 0.1-0.1 0.1-0.2 0.1 0-0.3 0-0.6z"/>
		</g>
		<g id="Layer">
			<path id="Layer" fill-rule="evenodd" class="s93" d="m52.1 41.2q0.1 0.1 0.1 0.3 0 0.1 0 0.2-0.1-0.2-0.1-0.5z"/>
		</g>
		<g id="Layer">
			<path id="Layer" fill-rule="evenodd" class="s94" d="m52.4 41.1q0.2 0 0.1 0.2 0 0.1 0.1 0.2 0.1-0.2 0.1-0.4 0.2 0 0.2 0.1 0.1 0.3 0 0.5-0.1-0.1-0.3 0-0.1-0.1-0.2-0.2 0 0.1 0 0.2-0.1-0.3 0-0.6z"/>
		</g>
		<g id="Layer">
			<path id="Layer" fill-rule="evenodd" class="s95" d="m54.6 41.1q0.6 0.2 0 0.6 0-0.3 0-0.6z"/>
		</g>
		<g id="Layer">
			<path id="Layer" fill-rule="evenodd" class="s96" d="m54.9 41.2q0.1 0 0.2 0 0.1 0.3 0 0.5-0.1-0.1-0.2 0 0-0.2 0-0.5z"/>
		</g>
		<g id="Layer">
			<path id="Layer" fill-rule="evenodd" class="s97" d="m51 41.3q0.1 0 0.2 0.1 0 0.2 0.1 0.3-0.1 0-0.1 0-0.1 0-0.1 0.1-0.1-0.2-0.1-0.5z"/>
		</g>
		<g id="Layer">
			<path id="Layer" fill-rule="evenodd" class="s30" d="m51.3 41.2q0.2 0 0.4 0.2-0.2 0.1 0 0.3-0.1 0-0.3 0-0.1-0.2-0.1-0.5z"/>
		</g>
		<g id="Layer">
			<path id="Layer" fill-rule="evenodd" class="s92" d="m55.3 41.3q0.1 0 0.2 0.2 0-0.1 0.1-0.2 0 0.2 0 0.4 0.2 0 0.1-0.2 0.1-0.2 0.2 0-0.1 0.2-0.1 0.3-0.2 0-0.5-0.1 0-0.1 0-0.4z"/>
		</g>
		<g id="Layer">
			<path id="Layer" fill-rule="evenodd" class="s98" d="m51.7 41.2q0.2-0.1 0.3 0-0.1 0.9-0.3 0z"/>
		</g>
		<g id="Layer">
			<path id="Layer" fill-rule="evenodd" class="s99" d="m50.8 41.4q0.1 0.2 0.2 0.4-0.2 0.1-0.2-0.1 0 0.1-0.1 0.2-0.1-0.2-0.2-0.4 0.1-0.1 0.2 0 0.1 0 0.1-0.1z"/>
		</g>
		<g id="Layer">
			<path id="Layer" fill-rule="evenodd" class="s100" d="m53.5 41q0.2 0 0.2 0.2 0.1-0.2 0.2-0.1-0.1 0.3-0.1 0.5-0.1-0.1-0.1-0.1 0 0-0.1 0.1-0.1-0.3-0.1-0.6z"/>
		</g>
		<g id="Layer">
			<path id="Layer" fill-rule="evenodd" class="s94" d="m54 41.1q0.1 0 0.2 0 0.1 0.3 0 0.6-0.1-0.2-0.2 0-0.1-0.3 0-0.6z"/>
		</g>
		<g id="Layer">
			<path id="Layer" fill-rule="evenodd" class="s101" d="m56 41.5q0.2 0.2 0 0.4-0.1-0.2 0-0.4z"/>
		</g>
		<g id="Layer">
			<path id="Layer" fill-rule="evenodd" class="s102" d="m56.6 41.5q0.1 0.1 0 0.2-0.1-0.1 0-0.2z"/>
		</g>
		<g id="Layer">
			<path id="Layer" fill-rule="evenodd" class="s103" d="m52.4 42.3q0.2 0 0.4 0 0 0.9-0.1 1.7-0.4 0.3-0.5-0.2 0.1-0.8 0.2-1.5z"/>
		</g>
		<g id="Layer">
			<path id="Layer" fill-rule="evenodd" class="s58" d="m53.1 42.3q0.3 0 0.5 0 0.2 0.9 0.1 1.9-0.3 0.2-0.8 0 0.1-1 0.2-1.9z"/>
		</g>
		<g id="Layer">
			<path id="Layer" fill-rule="evenodd" class="s104" d="m53.8 42.3q0.3 0 0.5 0.1 0.2 0.7 0.3 1.6-0.3 0.2-0.6 0.1-0.1-0.9-0.2-1.8z"/>
		</g>
		<g id="Layer">
			<path id="Layer" fill-rule="evenodd" class="s105" d="m51.7 42.4q0.2 0 0.5 0-0.1 0.5-0.2 1.2-0.5 0.2-0.8-0.2 0-0.1 0-0.3 0-0.3 0.2-0.6 0.1-0.1 0.3-0.1z"/>
		</g>
		<g id="Layer">
			<path id="Layer" fill-rule="evenodd" class="s103" d="m54.5 42.4q0.3 0 0.7 0.1 0.2 0.4 0.4 0.6-0.3 0.6-0.9 0.5-0.1-0.7-0.2-1.2z"/>
		</g>
		<g id="Layer">
			<path id="Layer" fill-rule="evenodd" class="s106" d="m50.9 42.5q0.1 0 0.3 0-0.1 0.4-0.4 0.5-0.7-0.3 0.1-0.5z"/>
		</g>
		<g id="Layer">
			<path id="Layer" fill-rule="evenodd" class="s107" d="m55.5 42.6q0-0.1 0.1-0.1 0.2 0.1 0.4 0.1 0.3 0.5-0.2 0.4-0.1-0.2-0.3-0.4z"/>
		</g>
		<g id="Layer">
			<path id="Layer" fill-rule="evenodd" class="s3" d="m18.5 44.4q1.7 0.5 3.3 0.9-0.1 0.4-0.2 0.8-1.6-0.5-3.3-1 0.1-0.3 0.2-0.7z"/>
		</g>
		<g id="Layer">
			<path id="Layer" fill-rule="evenodd" class="s3" d="m85.1 44.9q1.7 0.3 3.5 0.4 0.1 0 0.2 0.1 0.1 0.3 0.1 0.6-1.3 1.2-2.8 2.4-0.2-0.4-0.3-0.8 0.3-0.2 0.7-0.5-0.2-0.7-0.4-1.3-0.5-0.1-0.9-0.2 0-0.4-0.1-0.7z"/>
		</g>
		<g id="Layer">
			<path id="Layer" fill-rule="evenodd" class="s108" d="m86.7 45.9q0.2-0.1 0.4-0.1 0.4 0.1 0.8 0.1-0.4 0.4-0.9 0.7-0.1-0.3-0.3-0.7z"/>
		</g>
		<g id="Layer">
			<path id="Layer" fill-rule="evenodd" class="s109" d="m18.1 46.2q1.6 0.3 3.3 0.8 0 0.3-0.2 0.5-1.2 0.6-2.3 1.1 0.9 0.4 2 0.5-0.1 0.4-0.2 0.7-1.6-0.2-3.2-0.7-0.2-0.4 0.1-0.7 1.2-0.5 2.4-1.1-1-0.2-2-0.4 0-0.4 0.1-0.7z"/>
		</g>
		<g id="Layer">
			<path id="Layer" fill-rule="evenodd" class="s110" d="m35 46.4q0.2 0 0.4 0.3-1 1.9-1.5 3.9-0.2 0.4-0.6 0.1-0.1-0.1 0-0.3 0.7-2.1 1.7-4z"/>
		</g>
		<g id="Layer">
			<path id="Layer" fill-rule="evenodd" class="s110" d="m71.8 46.4q0.2 0 0.3 0.1 0.9 2 1.6 3.9 0.1 0.2 0 0.3-0.2 0.1-0.4 0.2-0.5-1.4-1.1-2.9-0.3-0.6-0.6-1.3 0.1-0.2 0.2-0.3z"/>
		</g>
		<g id="Layer">
			<path id="Layer" fill-rule="evenodd" class="s111" d="m37 46.6q0.3 0 0.5 0 0 0.1 0 0.3-0.1 0.7-0.3 1.6-0.8-0.5-0.8-1.4 0.3-0.3 0.6-0.5z"/>
		</g>
		<g id="Layer">
			<path id="Layer" fill-rule="evenodd" class="s111" d="m69.5 46.6q0.8 0 1.2 0.7-0.2 0.7-0.8 1.2-0.4-1-0.4-1.9z"/>
		</g>
		<g id="Layer">
			<path id="Layer" fill-rule="evenodd" class="s3" d="m89 48.5q0.2 0 0.5 0.1 0.1 0.2 0 0.6-0.9 0.8-1.8 1.7 1.1 0 2.1-0.1 0.1 0.3 0.1 0.7-1.7 0.2-3.3 0.5 0-0.1-0.1-0.2-0.1-0.3 0-0.6 0.9-0.9 1.8-1.8-1.1 0.1-2.1 0.3-0.1-0.4-0.1-0.8 1.5-0.2 2.9-0.4z"/>
		</g>
		<g id="Layer">
			<path id="Layer" fill-rule="evenodd" class="s112" d="m54.7 49q1 1.2 1.4 2.6 0.4 1.9-0.7 3.6-0.2 0.2-0.4 0.2-0.1 1.2-0.1 2.3-1.3 0-2.5 0 0-1.1 0-2.3-0.3 0-0.5-0.2-0.7-1.7-0.6-3.4 0.5-1.5 1.5-2.8 0.3 0.3 0.4 0.7 0.3 0.6 0.3 1.3-0.5 0.1-0.8 0.4-0.7 0.9-0.5 2-0.1 1.1 0.4 2 1.1 1.2 2.1 0 1.1-1.9 0.1-3.7-0.2-0.5-0.7-0.7-0.1-1.2 0.6-2z"/>
		</g>
		<g id="Layer">
			<path id="Layer" fill-rule="evenodd" class="s109" d="m17.2 50.4q1.2 0 2.5 0.3 0.9 0.3 0.8 1.3 0 1.6-1.6 1.5-0.9 0-1.9-0.2 0-0.2 0-0.6 1.1 0.1 2.3 0.1 0.8-0.3 0.6-1-0.2-0.3-0.4-0.4-1.2-0.2-2.3-0.3 0-0.3 0-0.7z"/>
		</g>
		<g id="Layer">
			<path id="Layer" fill-rule="evenodd" class="s110" d="m34.4 51.2q0.3 0.2 0.5 0.4-1.6 1.3-1.4 3.3-0.3 0-0.5-0.2-0.2-1.4 0.6-2.5 0.5-0.5 0.8-1z"/>
		</g>
		<g id="Layer">
			<path id="Layer" fill-rule="evenodd" class="s113" d="m72.5 51.2q1.7 1.5 1.5 3.8-0.2-0.1-0.5-0.1 0.2-2-1.4-3.3 0.2-0.2 0.4-0.4z"/>
		</g>
		<g id="Layer">
			<path id="Layer" fill-rule="evenodd" class="s114" d="m53.5 51.5q0.7 0 1 0.5 0.3 0.7 0.2 1.5 0 1-0.5 1.9-0.6 0.2-0.9-0.1-0.8-0.9-0.7-1.9 0-1.2 0.9-1.9z"/>
		</g>
		<g id="Layer">
			<path id="Layer" fill-rule="evenodd" class="s115" d="m48.9 51.8q0.6 0 1.1 0.4 0 0.3-0.2 0.7-0.3 0.4-0.7 0.9 1 1.9 2.1 3.9 0-1.3-0.2-2.7 0.2 0 0.2 0.1 0.2 0.4 0.6 0.7 0.1 1 0 2.1-0.8 0.7-0.4 1.7 0.5 0.6 0.6 1.5-1-0.3-0.9 0.7-2.2-2.3-3.9-4.8-0.6-1-0.6-2.1 0.1-0.5 0.5-0.7 0.1 0 0.3 0.1 0.7 2.5 2.3 4.5 0.7 0.9 1.4 1.7-0.4-1.2-1-2.4-0.9-1.6-1.7-3.4-0.5-0.9-0.5-1.9 0.4-0.8 1-1z"/>
		</g>
		<g id="Layer">
			<path id="Layer" fill-rule="evenodd" class="s115" d="m57.6 51.8q1.5 0.2 1.5 1.5-0.2 0.7-0.4 1.2-0.9 1.9-1.8 3.6-0.6 1.2-1 2.4 1.9-1.9 3-4.3 0.4-0.9 0.7-1.9 0.2-0.1 0.3-0.1 0.7 0.5 0.5 1.4-0.3 1.2-1.1 2.1-1.5 2.1-3.3 4 0-0.7-0.7-0.6 0-0.4 0.1-0.7 0.4-0.6 0.6-1.5-0.1-0.5-0.5-1 0-1 0-2.1 0.3-0.3 0.4-0.6-0.1 1.2-0.1 2.4 1.1-1.9 2.1-3.7 0.1-0.1 0-0.2-0.6-0.6-0.9-1.4 0.2-0.3 0.6-0.5z"/>
		</g>
		<g id="Layer">
			<path id="Layer" fill-rule="evenodd" class="s3" d="m89 52.5q0.5 0 1 0 0 0.4 0 0.7-1.7 0.2-3.4 0.3 0-0.4 0-0.7 1.2-0.1 2.4-0.3z"/>
		</g>
		<g id="Layer">
			<path id="Layer" fill-rule="evenodd" class="s116" d="m56.7 53.1q0.2 0.4 0.5 0.8-0.3 0.5-0.6 1.1 0-0.3 0.1-0.7-0.2 0-0.3 0.1 0.2-0.6 0.3-1.3z"/>
		</g>
		<g id="Layer">
			<path id="Layer" fill-rule="evenodd" class="s110" d="m37.2 53.5q0.7 0 1.5 0 0.4 0.2 1 0.2 0 0.3-0.1 0.5-2 0-3.2 1.4 0 0 0 0.1 0.3 0.4 0.6 0.8-0.1 0.1-0.4 0.3-0.5-0.5-1-1.2 0.8-1 2-1.5-1.6-0.1-2.4 1.3 0 0.5 0 1.1-0.3 0-0.6 0-0.1-2 1.7-2.8 0.4-0.1 0.9-0.2z"/>
		</g>
		<g id="Layer">
			<path id="Layer" fill-rule="evenodd" class="s117" d="m68.3 53.5q1.6-0.2 3.1 0.6 1.2 0.9 1 2.4-0.3 0-0.6 0 0.1-2.2-2-2.4-0.3-0.1-0.4 0 1.2 0.5 2 1.5-0.5 0.7-1 1.2-0.3-0.2-0.4-0.3 0.3-0.4 0.6-0.8-0.4-0.8-1.3-1.1-1-0.3-1.9-0.4-0.1-0.2-0.1-0.5 0.6-0.1 1-0.2z"/>
		</g>
		<g id="Layer">
			<path id="Layer" fill-rule="evenodd" class="s118" d="m30.6 53.6q0.1 0.5 0.1 0.9-0.4 0.1-0.6-0.1 0.2 0.1 0.5 0.1 0-0.4 0-0.9z"/>
		</g>
		<g id="Layer">
			<path id="Layer" fill-rule="evenodd" class="s119" d="m76.4 53.6q0 0.5 0 0.9 0.3 0 0.5-0.1-0.2 0.2-0.6 0.1 0-0.4 0.1-0.9z"/>
		</g>
		<g id="Layer">
			<path id="Layer" fill-rule="evenodd" class="s9" d="m19.5 55.2q0.2 0.1 0.2 0.2 0.1 0.8 0.3 1.5 0.8 0.2 1.6 0.4-0.7 0.4-1.4 0.9 0.1 0.8 0.1 1.7-0.7-0.6-1.3-1.2-0.9 0.3-1.6 0.7 0.3-0.7 0.7-1.6-0.5-0.6-1.1-1.2 0.9 0 1.7 0.1 0.6-0.7 0.8-1.5z"/>
		</g>
		<g id="Layer">
			<path id="Layer" fill-rule="evenodd" class="s9" d="m87.3 55.2q0.5 0.7 1 1.5 0.8-0.1 1.7-0.1-0.6 0.6-1.1 1.2 0.4 0.9 0.7 1.6-0.7-0.4-1.6-0.7-0.6 0.6-1.3 1.2 0-0.9 0.1-1.7-0.7-0.5-1.4-0.9 0.8-0.2 1.7-0.4 0.1-0.8 0.2-1.7z"/>
		</g>
		<g id="Layer">
			<path id="Layer" fill-rule="evenodd" class="s110" d="m40.4 56.1q0.2 0 0.3 0 0 0.3 0.1 0.5-2.1 0.3-3.5 1.7-0.7 1-0.4 2.2 0.2 0.6 0.5 1-0.2 0.2-0.5 0.3-1.8-3.7 1.9-5.2 0.9-0.2 1.6-0.5z"/>
		</g>
		<g id="Layer">
			<path id="Layer" fill-rule="evenodd" class="s117" d="m66.3 56.1q1.8 0.3 3.2 1.3 1.4 1 1.1 2.7 0 1-0.5 1.7-0.3-0.1-0.5-0.3 1.6-2.8-1.3-4.2-1-0.5-2.1-0.7 0.1-0.2 0.1-0.5z"/>
		</g>
		<g id="Layer">
			<path id="Layer" fill-rule="evenodd" class="s115" d="m46.1 57.5q0.6-0.2 0.7 0.4-0.1 0.8-0.4 1.4 0.4 0.2 1 0.2 1.9 1.2 3.7 2.7 0 1.3 0 2.7 0.1 0.3 0.4 0.2-0.1 1.5-0.2 2.9-0.4-0.8-0.9-1.6-1.3-1.4-2.6-2.7-0.6-0.6-1-1.4-0.1-0.6-0.2-1.3 1.7 1.7 3.5 3.3 0.2-0.2 0.4-0.4-2.1-1.9-4.2-3.9-0.8-1.2-0.5-2.4 0.2 0 0.3-0.1z"/>
		</g>
		<g id="Layer">
			<path id="Layer" fill-rule="evenodd" class="s55" d="m60.4 57.5q0.6-0.1 0.9 0.3 0.1 1.6-1 2.6-2 1.7-3.8 3.5 0.2 0.2 0.4 0.4 1.8-1.6 3.4-3.2 0.1 0.8-0.2 1.5-0.5 0.6-0.9 1.1-1.3 1.3-2.6 2.7-0.5 0.8-0.9 1.6-0.2-1.4-0.3-2.9 0.4 0.1 0.5-0.3 0.1-1.4 0.1-2.7 1.8-1.4 3.6-2.6 0.6 0 1-0.2-0.3-0.6-0.4-1.4 0-0.2 0.2-0.4z"/>
		</g>
		<g id="Layer">
			<path id="Layer" fill-rule="evenodd" class="s120" d="m55 58.3q-0.5 0-1.1 0 0.1 0.5 0 1 0-0.5 0-1.1 0.6 0 1.1 0.1z"/>
		</g>
		<g id="Layer">
			<path id="Layer" fill-rule="evenodd" class="s121" d="m52.3 58.2q0.5 0 1 0 0 1.5 0 2.9-0.4 0-0.8 0 0-0.4-0.1-0.8-0.3-0.6-0.6-1.4 0.1-0.4 0.5-0.7z"/>
		</g>
		<g id="Layer">
			<path id="Layer" fill-rule="evenodd" class="s122" d="m55 58.3q0.6 0.3 0.4 0.9-0.3 0.6-0.6 1-0.1 0.4-0.2 0.8-0.3 0-0.7 0 0-0.5 0-1 0-0.3 0-0.7 0.1-0.5 0-1 0.6 0 1.1 0z"/>
		</g>
		<g id="Layer">
			<path id="Layer" fill-rule="evenodd" class="s123" d="m47.3 58.2q0.4 0.5 0.8 0.9 0 0.1 0 0.2-0.4-0.3-1-0.4 0.2-0.3 0.2-0.7z"/>
		</g>
		<g id="Layer">
			<path id="Layer" fill-rule="evenodd" class="s124" d="m59.6 58.2q0.1 0.4 0.3 0.7-0.2 0-0.5 0.1-0.3 0.1-0.6 0.3 0.4-0.5 0.8-1.1z"/>
		</g>
		<g id="Layer">
			<path id="Layer" fill-rule="evenodd" class="s125" d="m30 58.4q0.8 0.5 1.4 1.2 0.5 0.6 0.1 1.4-0.3 0-0.5-0.2-0.9-0.7-1.5-1.6 0.4-0.3 0.5-0.8z"/>
		</g>
		<g id="Layer">
			<path id="Layer" fill-rule="evenodd" class="s125" d="m76.9 58.4q0.3 0.4 0.6 0.8-0.7 1.1-1.8 1.8-0.1 0.1-0.2 0-0.4-0.8 0.1-1.4 0.1-0.2 0.4-0.4 0.4-0.4 0.9-0.8z"/>
		</g>
		<g id="Layer">
			<path id="Layer" fill-rule="evenodd" class="s55" d="m45.3 60.5q0.3 0.1 0.5 0.5 0.2 0.7 0.2 1.5 1.7 2.2 3.8 4.2 0.7 0.8 1.5 1.6 0 1.3-0.1 2.5-1.5-2.4-3.8-4-0.8-0.5-1.7-1.1 0.5-0.2 1-0.6 0.4-0.7-0.1-1.4-0.8-0.7-1.5-1.4-0.7-1.1 0.2-1.8z"/>
		</g>
		<g id="Layer">
			<path id="Layer" fill-rule="evenodd" class="s55" d="m61.5 60.5q0.2 0 0.3 0.1 0.8 0.8 0.1 1.7-0.7 0.7-1.5 1.4-0.5 0.7-0.1 1.4 0.5 0.4 1 0.6-1.8 1.1-3.3 2.4-1.2 1.2-2.1 2.6-0.1-1.2-0.2-2.4 0.8-0.8 1.5-1.6 2.1-2 3.8-4.2 0-0.7 0.2-1.4 0.1-0.3 0.3-0.6z"/>
		</g>
		<g id="Layer">
			<path id="Layer" fill-rule="evenodd" class="s126" d="m53.9 60q0 0.5 0 1 0.4 0 0.7 0-0.3 0.1-0.8 0.1 0-0.6 0.1-1.1z"/>
		</g>
		<g id="Layer">
			<path id="Layer" fill-rule="evenodd" class="s9" d="m20.4 61q0.2 0.7 0.5 1.5 0.9 0.1 1.8 0.1-0.7 0.6-1.3 1.1 0.1 0.9 0.4 1.7-0.1 0-0.1 0.1-0.7-0.5-1.3-0.9-0.8 0.4-1.5 0.9 0.2-0.9 0.4-1.7-0.6-0.5-1.3-1.1 0.9-0.1 1.7-0.1 0.4-0.8 0.7-1.6z"/>
		</g>
		<g id="Layer">
			<path id="Layer" fill-rule="evenodd" class="s109" d="m86.6 61q0.3 0.7 0.7 1.6 0.8 0 1.7 0.1-0.7 0.6-1.3 1.1 0.2 0.8 0.4 1.7-0.7-0.5-1.5-0.9-0.6 0.4-1.3 0.9 0-0.1-0.1-0.1 0.3-0.8 0.4-1.7-0.6-0.5-1.3-1.1 0.9 0 1.8-0.1 0.3-0.7 0.5-1.5z"/>
		</g>
		<g id="Layer">
			<path id="Layer" fill-rule="evenodd" class="s127" d="m51.6 61.6q1.9 0 3.8 0 0 0.3 0 0.7-1.9 0-3.8 0 0-0.4 0-0.7z"/>
		</g>
		<g id="Layer">
			<path id="Layer" fill-rule="evenodd" class="s128" d="m55.4 62.8q0 0.3 0 0.6-1.9 0-3.8 0 0-0.3 0-0.6 1.9 0 3.8 0z"/>
		</g>
		<g id="Layer">
			<path id="Layer" fill-rule="evenodd" class="s129" d="m28.4 62.8q0.4 0.5 0.8 0.9-0.3 0.3-0.5 0.5 0-0.3-0.1-0.7-0.2-0.3-0.2-0.7z"/>
		</g>
		<g id="Layer">
			<path id="Layer" fill-rule="evenodd" class="s130" d="m78.6 62.8q0 0.1 0 0.1-0.1 0.4-0.2 0.6-0.1 0.4-0.1 0.7-0.2-0.2-0.5-0.5 0.4-0.4 0.8-0.9z"/>
		</g>
		<g id="Layer">
			<path id="Layer" fill-rule="evenodd" class="s131" d="m55.4 62.8q0.1 0.3 0.1 0.6-2 0-3.9 0 1.9 0 3.8 0 0-0.3 0-0.6z"/>
		</g>
		<g id="Layer">
			<path id="Layer" fill-rule="evenodd" class="s132" d="m45.3 63.7q0.9 0.1 0.6 1.1-0.2 0.4-0.4 0.8-1.1-0.9-0.2-1.9z"/>
		</g>
		<g id="Layer">
			<path id="Layer" fill-rule="evenodd" class="s132" d="m61.5 63.7q0.6 0.1 0.6 0.9-0.1 0.5-0.6 1-0.7-0.7-0.3-1.6 0.1-0.2 0.3-0.3z"/>
		</g>
		<g id="Layer">
			<path id="Layer" fill-rule="evenodd" class="s112" d="m51.6 63.9q1.9 0 3.8 0 0 0.4 0 0.7-1.9 0-3.8 0 0-0.3 0-0.7z"/>
		</g>
		<g id="Layer">
			<path id="Layer" fill-rule="evenodd" class="s133" d="m29.2 64.4q0.6 0.2 1.2 0.6 1.2 1.1 2 2.6-0.3 0-0.6-0.1-0.6-0.5-1.2-1-0.5-0.3-1-0.1-0.1 0.1-0.1 0.2 0 0.4 0 0.8-1.1-1.5-0.3-3z"/>
		</g>
		<g id="Layer">
			<path id="Layer" fill-rule="evenodd" class="s133" d="m77.5 64.4q0.2 0 0.3 0.1 0.7 1.5-0.3 2.9 0-0.5 0-0.9-0.6-0.3-1.1 0-3.1 2.6-0.6-0.6 0.7-0.9 1.7-1.5z"/>
		</g>
		<g id="Layer">
			<path id="Layer" fill-rule="evenodd" class="s134" d="m31.3 65.2q-0.2-0.2-0.4-0.3 0.3 0 0.6 0.2-0.1 0-0.2 0.1z"/>
		</g>
		<g id="Layer">
			<path id="Layer" fill-rule="evenodd" class="s135" d="m75.8 64.9q0.1 0 0.2 0-0.3 0.3-0.5 0.6 0-0.2 0.2-0.3-0.1-0.1-0.2-0.1 0.2-0.1 0.3-0.2z"/>
		</g>
		<g id="Layer">
			<path id="Layer" fill-rule="evenodd" class="s136" d="m31.3 65.2q0.3 0.1 0.3 0.4-0.2-0.2-0.3-0.4z"/>
		</g>
		<g id="Layer">
			<path id="Layer" fill-rule="evenodd" class="s137" d="m52.2 65.3q1.3 0 2.6 0.1 0.5 4.5 0.9 8.9-1.1 0.5-2.2 0.9-1-0.4-1.8-0.7-0.1-1.3 0-2.6 0.2-3.3 0.5-6.6z"/>
		</g>
		<g id="Layer">
			<path id="Layer" fill-rule="evenodd" class="s138" d="m32 66q1.3 1.3 3 2.1-1.2 0.3-2.3 0 0.3 0 0.5 0-0.1-0.3-0.2-0.7-0.5-0.6-1-1.4z"/>
		</g>
		<g id="Layer">
			<path id="Layer" fill-rule="evenodd" class="s139" d="m74.7 66.3q0.1 0 0.1 0.1-0.7 0.8-1 1.7 0.2 0 0.5 0-1.1 0.3-2.3 0 1.5-0.7 2.7-1.8z"/>
		</g>
		<g id="Layer">
			<path id="Layer" fill-rule="evenodd" class="s109" d="m22.2 66.5q0.5 0.7 0.8 1.5 0.8 0 1.7 0-0.6 0.6-1.2 1.2 0.3 0.7 0.6 1.5 0 0 0 0.1-0.7-0.5-1.4-0.8-0.8 0.5-1.4 1.1 0.1-0.8 0.2-1.7-0.7-0.4-1.4-0.9 0.8-0.2 1.6-0.4 0.3-0.8 0.5-1.6z"/>
		</g>
		<g id="Layer">
			<path id="Layer" fill-rule="evenodd" class="s9" d="m84.7 66.5q0.4 0.8 0.5 1.7 0.9 0.1 1.7 0.3-0.7 0.5-1.4 0.9 0.1 0.9 0.2 1.7-0.6-0.6-1.4-1.1-0.8 0.4-1.5 0.8 0.4-0.8 0.7-1.6-0.6-0.6-1.2-1.2 0.9 0 1.7 0 0.3-0.8 0.7-1.5z"/>
		</g>
		<g id="Layer">
			<path id="Layer" fill-rule="evenodd" class="s140" d="m35.1 68.8q0.1-0.1 0.2 0-1.9 0.3-3.8 0.7-1.6 0.1-2.9-1-0.4-0.7-0.4-1.6 0.4 1.1 1.3 2 0.3 0.2 0.9 0.2 0.3-0.5 0.3-1.2 2 1.3 4.4 0.9z"/>
		</g>
		<g id="Layer">
			<path id="Layer" fill-rule="evenodd" class="s141" d="m70.3 68.8q0.5-0.1 1-0.2 2 0.5 3.9-0.2 0.6-0.2 1.1-0.5 0 0.5 0.2 1.1 0 0.1 0.3 0.2 0.7-0.2 1.3-0.9 0.5-0.7 0.7-1.4 0 1.6-1.3 2.2-1.1 0.5-2.3 0.4-1.8-0.4-3.8-0.7-0.6-0.1-1.1 0z"/>
		</g>
		<g id="Layer">
			<path id="Layer" fill-rule="evenodd" class="s142" d="m76.9 67.8q0.1 0.2 0.2 0.6-0.1 0.3-0.2 0-0.1-0.4 0-0.6z"/>
		</g>
		<g id="Layer">
			<path id="Layer" fill-rule="evenodd" class="s143" d="m30.1 67.9q0 0.1 0 0.2 0.1 0.2-0.1 0.4-0.1 0-0.1-0.1 0.1-0.3 0.2-0.5z"/>
		</g>
		<g id="Layer">
			<path id="Layer" fill-rule="evenodd" class="s144" d="m35.7 68.6q0.5 0.1 1 0.2-0.7-0.1-1.4 0-0.1-0.1-0.2 0 0.2-0.2 0.6-0.2z"/>
		</g>
		<g id="Layer">
			<path id="Layer" fill-rule="evenodd" class="s145" d="m28.2 69q1.3 1.7 3.6 1.4 0.6-0.1 1.3-0.2-0.8 0.6-1.7 1.2-0.2 0.1-0.4 0.4 0 0.6 0.1 1 0.3 0.5 0.7 0.5 0.3 0.1 0.4-0.2-0.1-0.9 0.7-1.4-0.1 1.2-1 2.1-1.2 0.5-1.8-0.7-0.1-0.8 0.1-1.7 0.3-0.2 0.5-0.4-1.3-0.3-2.3-1.2-0.1-0.4-0.2-0.8z"/>
		</g>
		<g id="Layer">
			<path id="Layer" fill-rule="evenodd" class="s145" d="m78.7 69q0.1 0.7-0.5 1.2-0.9 0.5-1.9 0.8 0.2 0.2 0.5 0.4 0.2 0.9 0.1 1.7-0.4 1-1.6 0.8-0.4-0.2-0.7-0.6-0.5-0.8-0.5-1.6 0.8 0.5 0.7 1.4 0.4 0.4 0.8 0.1 0.2-0.2 0.3-0.4 0.1-0.4 0.1-1-0.2-0.3-0.4-0.4-0.9-0.6-1.7-1.2 0.6 0.1 1.3 0.2 2.1 0.3 3.4-1.3 0.1 0 0.1-0.1z"/>
		</g>
		<g id="Layer">
			<path id="Layer" fill-rule="evenodd" class="s139" d="m35.4 69.2q0.3 0 0.7 0.1-1.5 0.7-2.4 2-0.1-0.2-0.2-0.2-0.5 0.1-0.9 0.2 0.6-0.5 1.3-1-0.1-0.3-0.3-0.6 0.9-0.3 1.8-0.5z"/>
		</g>
		<g id="Layer">
			<path id="Layer" fill-rule="evenodd" class="s139" d="m70.9 69.3q1.3 0 2.5 0.4-0.2 0.3-0.3 0.6 0.7 0.5 1.3 1-0.4-0.1-0.9-0.2-0.2 0-0.2 0.2-0.9-1.3-2.4-2z"/>
		</g>
		<g id="Layer">
			<path id="Layer" fill-rule="evenodd" class="s146" d="m32 71.5q0.1 0 0.2 0.1-0.4 0.5-0.5 1.1-0.1-0.4-0.1-0.8 0.2-0.2 0.4-0.4z"/>
		</g>
		<g id="Layer">
			<path id="Layer" fill-rule="evenodd" class="s147" d="m74.8 71.6q0.1-0.1 0.1-0.1 0.3 0.2 0.5 0.4 0 0.4-0.1 0.8-0.1-0.2-0.1-0.5-0.1-0.4-0.4-0.6z"/>
		</g>
		<g id="Layer">
			<path id="Layer" fill-rule="evenodd" class="s4" d="m24.6 72.1q0.6 0.6 1.2 1.4 0.8-0.3 1.6-0.4-0.4 0.6-1 1.4 0.5 0.6 0.9 1.4-0.8-0.1-1.5-0.5-0.6 0.7-1.2 1.5 0-0.9-0.1-1.9-0.8-0.2-1.6-0.6 0.9-0.4 1.7-0.6 0-0.8 0-1.7z"/>
		</g>
		<g id="Layer">
			<path id="Layer" fill-rule="evenodd" class="s9" d="m82.3 72.1q0.1 0.8 0.1 1.7 0.8 0.2 1.6 0.6-0.8 0.4-1.5 0.6-0.1 1-0.1 1.9-0.6-0.8-1.2-1.5-0.8 0.3-1.5 0.5 0.4-0.8 0.9-1.4-0.6-0.8-1-1.4 0.8 0.1 1.6 0.4 0.6-0.7 1.1-1.4z"/>
		</g>
		<g id="Layer">
			<path id="Layer" fill-rule="evenodd" class="s148" d="m64.6 73.6q-0.1-0.1-0.1-0.3 0-0.1 0.1-0.2 0 0.2 0 0.5z"/>
		</g>
		<g id="Layer">
			<path id="Layer" fill-rule="evenodd" class="s149" d="m42.5 73.3q0 0.2-0.1 0.3 0-0.3 0-0.5 0.1 0.1 0.1 0.2z"/>
		</g>
		<g id="Layer">
			<path id="Layer" fill-rule="evenodd" class="s150" d="m44.4 74.6q0.9 0.4 1.8 0.3 1.3 0 2.6-0.1 1-0.1 2 0 1.1 0.2 2.1 0.8 0.2 2.3 0 4.6-2.1-1-4.4-1-1.8-0.1-3.6-0.1-0.8-0.1-1.7-0.4 0-0.2 0-0.4 0.6-1.8 1.2-3.7z"/>
		</g>
		<g id="Layer">
			<path id="Layer" fill-rule="evenodd" class="s150" d="m62 74.6q0.1 0 0.2 0.1 0.6 2 1.2 4-0.9 0.3-1.9 0.4-2.4 0.1-5 0.2-1.5 0.2-2.9 0.9-0.1-2.2 0-4.4 1.2-0.6 2.4-1 0.8-0.1 1.4 0 1.4 0.1 2.8 0.1 0.5 0 1.1-0.1 0.4 0 0.7-0.2z"/>
		</g>
		<g id="Layer">
			<path id="Layer" fill-rule="evenodd" class="s109" d="m76.5 77.7q1.5 1.3 3 2.8-0.2 0.2-0.6 0.5-0.1 0-0.3-0.2-1.2-1.2-2.5-2.5-0.1 0 0-0.1 0.2-0.2 0.4-0.5z"/>
		</g>
		<g id="Layer">
			<path id="Layer" fill-rule="evenodd" class="s9" d="m30.5 77.8q0.8 0.7 1.5 1.5 0.8 1.1-0.3 1.7-0.3 0-0.6 0.1 0.4 0.9-0.5 1.4-0.8 0.2-1.3-0.4-0.8-0.7-1.6-1.5 1.4-1.4 2.8-2.8z"/>
		</g>
		<g id="Layer">
			<path id="Layer" fill-rule="evenodd" class="s4" d="m75.5 78.8q0.2 0 0.4 0.3 1.1 1.3 2.3 2.7-0.3 0.3-0.7 0.5-0.5-0.5-1-1.1 0-0.1-0.1 0-0.6 0.5-1.2 1 0.6 0.6 1.1 1.2-0.3 0.3-0.7 0.6-1.3-1.4-2.6-3 0.3-0.4 0.7-0.5 0.5 0.5 1 1.1 0.6-0.5 1.3-1.1-0.6-0.6-1.1-1.1 0.3-0.3 0.6-0.6z"/>
		</g>
		<g id="Layer">
			<path id="Layer" fill-rule="evenodd" class="s6" d="m30.6 78.9q0.4 0.4 0.8 0.8 0 0.9-0.7 0.5-0.3-0.3-0.7-0.7 0 0 0-0.1 0.3-0.2 0.6-0.5z"/>
		</g>
		<g id="Layer">
			<path id="Layer" fill-rule="evenodd" class="s151" d="m45.2 80.8q0 0.1 0.1 0.1 0-0.4 0-0.9 0.2 0 0.2 0 0 0.8 0 1.6-0.1 0.1-0.3 0-0.2-0.6-0.5-1.1 0 0.5 0 1.1-0.2 0-0.3 0 0-0.9 0-1.6 0.3-0.1 0.5 0 0.2 0.5 0.3 0.8z"/>
		</g>
		<g id="Layer">
			<path id="Layer" fill-rule="evenodd" class="s152" d="m62.4 80q0.2-0.1 0.4 0 0.2 0.8 0.3 1.6-0.1 0-0.3 0 0-0.3-0.2-0.3-0.4 0-0.4 0.3-0.1 0-0.3 0 0.2-0.9 0.5-1.6z"/>
		</g>
		<g id="Layer">
			<path id="Layer" fill-rule="evenodd" class="s153" d="m46.2 80q0.2 0 0.4 0-0.1 0.6-0.1 1.4 0.3 0.2 0.4-0.3 0-0.5 0.1-1 0.2 0 0.3 0 0 0.7-0.2 1.5-0.5 0.2-1-0.2 0-0.7 0.1-1.4z"/>
		</g>
		<g id="Layer">
			<path id="Layer" fill-rule="evenodd" class="s154" d="m60.3 80q0.4-0.1 0.8 0 0.4 0.3 0.3 0.6-0.1 0.2-0.2 0.3 0.2 0.3 0.3 0.7-0.1 0.1-0.4 0-0.4-1.2-0.4 0-0.2 0-0.4 0 0-0.8 0-1.6z"/>
		</g>
		<g id="Layer">
			<path id="Layer" fill-rule="evenodd" class="s155" d="m58.8 80.1q0.4 0 0.9 0 0 0.3-0.3 0.4 0 0.1 0 0.3 0 0.5 0 0.9-0.1 0-0.2 0-0.1-0.6-0.2-1.2-0.1 0-0.3 0 0-0.2 0.1-0.4z"/>
		</g>
		<g id="Layer">
			<path id="Layer" fill-rule="evenodd" class="s54" d="m29.5 80.1q0.2 0.2 0.6 0.4 0.4 0.4 0.4 0.9-0.3 0.4-0.7 0.2-0.5-0.4-0.9-1 0.3-0.2 0.6-0.5z"/>
		</g>
		<g id="Layer">
			<path id="Layer" fill-rule="evenodd" class="s153" d="m48.1 80.2q0.7-0.1 0.8 0.5-0.3-0.1-0.7-0.2 0 0.2 0.1 0.3 0.3 0.1 0.5 0.4 0.1 0.7-0.7 0.7-0.4-0.2-0.4-0.5 0.3-0.1 0.4 0.2 0.4 0.1 0.3-0.2-0.9-0.5-0.3-1.2z"/>
		</g>
		<g id="Layer">
			<path id="Layer" fill-rule="evenodd" class="s156" d="m57.8 80.3q0.2 0 0.3 0.2 0.1 0.6 0.1 1.2-0.5 0.5-1 0.1-0.2-0.7-0.3-1.3 0.3-0.1 0.4 0 0.1 0.6 0.2 1.1 0.2 0.1 0.4 0.1 0-0.7-0.1-1.4z"/>
		</g>
		<g id="Layer">
			<path id="Layer" fill-rule="evenodd" class="s157" d="m60.6 80.2q0.6 0 0.4 0.4-0.2 0.1-0.4 0 0-0.1 0-0.4z"/>
		</g>
		<g id="Layer">
			<path id="Layer" fill-rule="evenodd" class="s158" d="m62.5 80.4q0.1 0.2 0.1 0.5-0.1 0-0.2 0 0.1-0.3 0.1-0.5z"/>
		</g>
		<g id="Layer">
			<path id="Layer" fill-rule="evenodd" class="s159" d="m49.9 80.6q0.2 0 0.4 0 0 0.9 0 1.7-0.2 0-0.3 0 0-0.2-0.1-0.4-0.2-0.1-0.4-0.1-0.1 0.1-0.2 0.3-0.2 0-0.3-0.1 0.4-0.7 0.9-1.4z"/>
		</g>
		<g id="Layer">
			<path id="Layer" fill-rule="evenodd" class="s160" d="m45.3 80q0 0.5 0 0.9-0.1 0-0.1-0.1 0.1-0.4 0.1-0.8z"/>
		</g>
		<g id="Layer">
			<path id="Layer" fill-rule="evenodd" class="s154" d="m55.6 80.8q0.9-0.2 0.8 0.8-0.2 0.1-0.5 0.2-0.1 0.3 0.1 0.6-0.2 0.2-0.4 0.1-0.1-0.8-0.5-1.5 0.3-0.1 0.5-0.2z"/>
		</g>
		<g id="Layer">
			<path id="Layer" fill-rule="evenodd" class="s9" d="m34.2 81q0.4 0.2 0.7 0.6-0.5 2.1-1 4.1-0.3-0.2-0.7-0.5 0-0.4 0.2-0.9-0.6-0.5-1.4-1-0.4 0.2-0.8 0.5-0.4-0.2-0.6-0.5 1.8-1.2 3.6-2.3z"/>
		</g>
		<g id="Layer">
			<path id="Layer" fill-rule="evenodd" class="s161" d="m49.9 81q0.1 0.3 0.1 0.6-0.2 0.1-0.3-0.1 0.1-0.2 0.2-0.5z"/>
		</g>
		<g id="Layer">
			<path id="Layer" fill-rule="evenodd" class="s158" d="m55.7 81.1q0.2 0 0.3 0.3-0.1 0.2-0.2 0.2-0.2-0.2-0.1-0.5z"/>
		</g>
		<g id="Layer">
			<path id="Layer" fill-rule="evenodd" class="s9" d="m71.4 82q0.2 0 0.4 0.1 1.6 1.1 3.4 2.3-0.4 0.3-0.8 0.5-0.4-0.3-0.8-0.6-0.7 0.5-1.3 0.9-0.1 0.1-0.1 0.1 0.1 0.5 0.1 0.9-0.3 0.2-0.6 0.4-0.5-2-0.8-4 0-0.1 0-0.3 0.3-0.1 0.5-0.3z"/>
		</g>
		<g id="Layer">
			<path id="Layer" fill-rule="evenodd" class="s108" d="m33.8 82.1q0.1 0 0.2 0.1-0.2 0.6-0.4 1.2-0.5-0.3-0.8-0.6 0.5-0.3 1-0.7z"/>
		</g>
		<g id="Layer">
			<path id="Layer" fill-rule="evenodd" class="s9" d="m36.4 82.7q0.4 0.1 0.8 0.4 0.2 1.5 0.3 3 0.7-1 1.2-2 0.1-0.1 0.2-0.1 0.4 0.2 0.6 0.5-0.9 1.7-2 3.4-0.2-0.2-0.5-0.4-0.3-1.5-0.6-3.2-0.5 1.1-1.2 2.2-0.4-0.2-0.8-0.4 1-1.7 2-3.4z"/>
		</g>
		<g id="Layer">
			<path id="Layer" fill-rule="evenodd" class="s108" d="m71.8 83.2q0-0.2 0-0.1 0.6 0.4 1.1 0.8-0.4 0.2-0.8 0.5-0.2-0.6-0.3-1.2z"/>
		</g>
		<g id="Layer">
			<path id="Layer" fill-rule="evenodd" class="s9" d="m69.1 83.4q1 1.7 1.9 3.5-0.3 0.4-0.7 0.5-0.7-1.2-1.2-2.3-0.1 1.1-0.3 2-0.8-0.4-1.6-0.9 0.4 1.2 1.1 2.3-0.4 0.1-0.7 0.3-0.1 0-0.2-0.1-0.9-1.6-1.7-3.4 0.4-0.2 0.7-0.4 0.8 0.5 1.8 1 0.1-1 0.2-2 0.4-0.2 0.7-0.5z"/>
		</g>
		<g id="Layer">
			<path id="Layer" fill-rule="evenodd" class="s109" d="m39.9 84.6q1 0.3 1.9 0.7 1.4 1 0.8 2.6-0.9 1.4-2.5 1-0.8-0.4-1.6-0.6 0.7-1.9 1.4-3.7z"/>
		</g>
		<g id="Layer">
			<path id="Layer" fill-rule="evenodd" class="s109" d="m64.8 85.4q0.1 0 0.2 0.1 0.8 1.8 1.5 3.5-0.4 0.3-0.8 0.4-0.8-1.9-1.5-3.7 0.3-0.2 0.6-0.3z"/>
		</g>
		<g id="Layer">
			<path id="Layer" fill-rule="evenodd" class="s162" d="m40.4 85.6q1 0.1 1.5 1 0.1 1.8-1.7 1.5-0.4-0.1-0.6-0.3 0.4-1.1 0.8-2.2z"/>
		</g>
		<g id="Layer">
			<path id="Layer" fill-rule="evenodd" class="s9" d="m43.6 86q0.5 0.2 0.9 0.2-0.4 1.3-0.7 2.6 0.2 1.1 1.3 0.8 0.2-0.1 0.3-0.3 0.4-1.3 0.8-2.5 0-0.1 0.1-0.1 0.4 0.2 0.7 0.2-0.3 1.1-0.6 2.3-0.5 1.6-2 1.2-1.7-0.4-1.4-2 0.2-1.2 0.6-2.4z"/>
		</g>
		<g id="Layer">
			<path id="Layer" fill-rule="evenodd" class="s4" d="m62.5 86.2q0.8-0.1 1.4 0.2-0.1 0.4-0.3 0.7-0.6-0.1-1.1-0.1-1.3 0.7-0.6 2 0.7 0.8 1.7 0.3 0.2-0.3 0.5-0.6 0.4 0.1 0.7 0.5-0.7 1.1-2 1.1-1.9-0.2-2.1-2.1 0.2-1.7 1.8-2z"/>
		</g>
		<g id="Layer">
			<path id="Layer" fill-rule="evenodd" class="s9" d="m47.4 87q0.4 0 0.8 0.1 0.7 1.3 1.5 2.6 0.2-1.2 0.4-2.3 0.4 0 0.9 0-0.4 2.1-0.6 4-0.3 0-0.8-0.1-0.7-1.4-1.5-2.8-0.3 1.3-0.3 2.5-0.5 0-1-0.1 0.3-1.9 0.6-3.9z"/>
		</g>
		<g id="Layer">
			<path id="Layer" fill-rule="evenodd" class="s9" d="m52.9 87.4q0.6 0 1.3 0.2 0.4 0.1 0.7 0.5-0.3 0.3-0.5 0.6-0.9-0.6-1.8-0.2-1 1 0 2.1 0.8 0.3 1.5 0.1 0.1-0.4 0.1-0.7-0.5 0-0.9 0 0-0.3 0-0.7 0.9 0 1.7 0 0 0.9 0 1.7-1.3 0.9-2.6 0.4-1.3-0.7-1.2-2.2 0.3-1.4 1.7-1.8z"/>
		</g>
		<g id="Layer">
			<path id="Layer" fill-rule="evenodd" class="s163" d="m58.4 88.9q0.2 0 0.4 0 0.1 0.5 0.1 0.9-0.8 0-1.8 0.2 0-0.4-0.1-0.8 0.8-0.1 1.4-0.3z"/>
		</g>
		<g id="Layer">
			<path id="Layer" fill-rule="evenodd" class="s164" d="m23.8 92.1q0 0.1 0 0.2 0.1 0 0.3 0-0.2 0.2-0.3 0.1 0-0.1 0-0.3z"/>
		</g>
	</g>
	<path id="UNIVERSITAS JENDERAL ACHMAD YANI" class="s165" aria-label="UNIVERSITAS JENDERAL ACHMAD YANI"  d="m111.6 71.7c0 3.7 2.4 5.4 5.4 5.4 2.9 0 5.4-1.7 5.4-5.4v-9.1h-1.9v9.1c0 2.7-1.4 3.8-3.5 3.8-2.1 0-3.6-1.1-3.6-3.8v-9.1h-1.8zm23.3-9.1v11.5l-7.5-11.5h-1.9v14.4h1.9v-11.4l7.5 11.4h1.9v-14.4zm5.1 14.4h1.9v-14.3h-1.9zm10.4-2l-4.5-12.4h-2l5.4 14.4h2.2l5.4-14.4h-2zm16.3-12.4h-7.7v14.4h7.7v-1.6h-5.8v-4.9h5.2v-1.6h-5.2v-4.8h5.8zm10.6 4.3c0 1.6-1 2.7-3.1 2.7h-2.7v-5.4h2.7c2.2 0 3.1 1.1 3.1 2.7zm-7.7-4.2v14.3h1.9v-5.9h2.2l3.4 5.9h2.3l-3.6-6c2.4-0.5 3.4-2.3 3.4-4.1 0-2.4-1.6-4.2-5-4.2zm21.9 10.4c0-5.3-7.8-3-7.8-6.7 0-1.6 1.2-2.4 2.8-2.3 1.7 0 2.7 1.1 2.8 2.1h2c-0.2-2.2-2-3.7-4.7-3.7-2.9 0-4.8 1.6-4.8 3.9 0 5.4 7.8 2.9 7.8 6.8 0 1.3-1.1 2.4-2.9 2.4-2 0-2.8-1.2-3-2.4h-2c0.1 2.4 2.1 4 5 4 3.1 0 4.8-2.1 4.8-4.1zm2.7 3.9h1.9v-14.3h-1.9zm4.2-12.9h4v12.9h1.8v-12.9h4v-1.5h-9.8zm21.7 12.8h2l-5.2-14.3h-2.1l-5.2 14.3h1.9l1.2-3.2h6.3zm-1.7-4.7h-5.2l2.6-7.2zm15.2 0.8c0-5.4-7.7-3-7.7-6.8 0-1.5 1.2-2.3 2.8-2.3 1.7 0.1 2.6 1.1 2.7 2.1h2.1c-0.2-2.2-2-3.7-4.8-3.7-2.8 0-4.7 1.6-4.7 4 0 5.3 7.7 2.9 7.7 6.7 0 1.4-1 2.4-2.8 2.4-2 0-2.9-1.2-3-2.4h-2c0 2.4 2.1 4 5 4 3.1 0 4.7-2 4.7-4zm13.6 0.1c0 1.2-0.5 2.3-2 2.3-1.5 0-2.1-1.1-2.2-2.4h-1.8c0 2.5 1.6 4 4 4 2.3 0 3.9-1.5 3.9-3.9v-10.6h-1.9zm13.4-10.6h-7.8v14.4h7.8v-1.6h-5.9v-4.9h5.2v-1.6h-5.2v-4.8h5.9zm12.2 0v11.4l-7.5-11.4h-1.9v14.4h1.9v-11.4l7.5 11.4h1.9v-14.4zm9.5 0h-4.4v14.4h4.4c4.8 0 7.7-2.7 7.7-7.1 0-4.5-2.9-7.3-7.7-7.3zm-2.6 12.9v-11.3h2.6c3.8 0 5.8 2.2 5.8 5.7 0 3.5-2 5.6-5.8 5.6zm20.5-12.9h-7.8v14.4h7.8v-1.5h-5.9v-5h5.3v-1.5h-5.3v-4.8h5.9zm10.5 4.2c0 1.6-0.9 2.8-3 2.8h-2.8v-5.5h2.8c2.1 0 3 1.1 3 2.7zm-7.7-4.2v14.4h1.9v-5.9h2.3l3.4 5.9h2.2l-3.6-6.1c2.4-0.5 3.4-2.2 3.4-4.1 0-2.3-1.6-4.2-4.9-4.2zm22.1 14.4h2l-5.2-14.3h-2.1l-5.2 14.3h2l1.1-3.2h6.3zm-1.7-4.8h-5.2l2.6-7.2zm5.9-9.7v14.4h6.9v-1.5h-5v-12.9zm24.1 14.4h1.9l-5.1-14.3h-2.2l-5.2 14.3h2l1.1-3.2h6.3zm-1.7-4.7h-5.2l2.6-7.3zm5.3-2.4c0 4.3 3.1 7.3 7.1 7.3 3.1 0 5.6-1.6 6.7-4.3h-2.3c-0.7 1.7-2.3 2.7-4.4 2.7-3 0-5.2-2.2-5.2-5.7 0-3.6 2.2-5.7 5.2-5.7 2.1 0 3.7 0.9 4.4 2.7h2.3c-1.1-2.8-3.6-4.4-6.7-4.4-4 0-7.1 3.1-7.1 7.4zm25.8 7.2h1.8v-14.4h-1.8v6.3h-7.4v-6.3h-1.8v14.4h1.8v-6.6h7.4zm5 0h1.9v-10.6l4.7 10.6h1.4l4.7-10.6v10.6h1.9v-14.2h-2l-5.3 11.8-5.3-11.8h-2zm27.4 0h2l-5.2-14.3h-2.2l-5.2 14.3h2l1.2-3.2h6.2zm-1.6-4.7h-5.2l2.6-7.3zm10.4-9.6h-4.5v14.3h4.5c4.7 0 7.6-2.7 7.6-7.1 0-4.5-2.9-7.2-7.6-7.2zm-2.6 12.8v-11.3h2.6c3.7 0 5.7 2.2 5.7 5.7 0 3.5-2 5.6-5.7 5.6zm21.7-3.9v5.4h1.8v-5.4l4.7-8.9h-2.1l-3.5 7.2-3.5-7.2h-2.1zm18.2 5.4h1.9l-5.1-14.3h-2.2l-5.2 14.3h2l1.1-3.2h6.3zm-1.7-4.7h-5.2l2.6-7.3zm15.4-9.7v11.5l-7.6-11.5h-1.9v14.4h1.9v-11.4l7.6 11.4h1.8v-14.4zm5.1 14.4h1.9v-14.3h-1.9z"/>
	<path id="PERPUSTAKAAN PUSAT" class="s165" aria-label="PERPUSTAKAAN PUSAT"  d="m114.9 36.2v-9h4.7c3.6 0 5.1 1.7 5.1 4.5 0 2.8-1.5 4.5-5.1 4.5zm13.1-4.5c0-3.9-2.7-7.1-8.4-7.1h-7.9v24.4h3.2v-10.2h4.7c6 0 8.4-3.3 8.4-7.1zm17.1-7.1h-13.2v24.4h13.2v-2.6h-10v-8.4h8.9v-2.7h-8.9v-8.1h10zm17.9 7.2c0 2.7-1.6 4.7-5.2 4.7h-4.7v-9.2h4.7c3.6 0 5.2 1.7 5.2 4.5zm-13.1-7.2v24.4h3.2v-10h3.8l5.8 10h3.9l-6.2-10.2c4.1-0.9 5.8-3.9 5.8-7 0-4-2.7-7.2-8.4-7.2zm24.4 11.6v-8.9h4.7c3.7 0 5.2 1.6 5.2 4.5 0 2.7-1.5 4.4-5.2 4.4zm13.2-4.4c0-4-2.7-7.2-8.5-7.2h-7.9v24.4h3.2v-10.2h4.7c6.1 0 8.5-3.3 8.5-7zm3.8 8.2c0 6.4 4.2 9.3 9.2 9.3 5.1 0 9.2-2.9 9.2-9.3v-15.4h-3.2v15.5c0 4.4-2.3 6.4-6 6.4-3.6 0-6-2-6-6.4v-15.5h-3.2zm39.6 2.4c0-9.1-13.2-5.1-13.2-11.4 0-2.7 2.1-4 4.7-4 3 0.1 4.5 1.9 4.7 3.6h3.5c-0.3-3.7-3.4-6.3-8-6.3-4.9 0-8.1 2.7-8.1 6.8 0 9 13.2 4.8 13.2 11.4 0 2.3-1.8 4.1-4.9 4.1-3.4 0-4.9-2.1-5.1-4.1h-3.4c0.1 4 3.6 6.8 8.5 6.8 5.3 0 8.1-3.5 8.1-6.9zm3.2-15.2h6.7v21.8h3.1v-21.8h6.7v-2.6h-16.5zm36.8 21.8h3.4l-8.8-24.2h-3.7l-8.8 24.2h3.3l2-5.4h10.6zm-2.8-8h-8.8l4.4-12.3zm23.3 8h4.1l-11.1-12.2 11-12.2h-4l-10.1 11.3v-11.3h-3.2v24.4h3.2v-11.1zm24.1 0h3.4l-8.8-24.3h-3.7l-8.8 24.3h3.4l1.9-5.5h10.7zm-2.9-8h-8.8l4.4-12.3zm26.5 8h3.3l-8.8-24.2h-3.6l-8.9 24.2h3.4l2-5.4h10.6zm-2.9-8h-8.8l4.4-12.3zm26.1-16.5v19.4l-12.8-19.4h-3.2v24.5h3.2v-19.5l12.8 19.5h3.2v-24.5zm21.1 11.7v-9h4.7c3.6 0 5.2 1.7 5.2 4.5 0 2.7-1.6 4.5-5.2 4.5zm13.1-4.5c0-4-2.7-7.1-8.4-7.1h-7.9v24.4h3.2v-10.2h4.7c6.1 0 8.4-3.4 8.4-7.1zm3.9 8.3c0 6.3 4.1 9.2 9.2 9.2 5 0 9.2-2.9 9.2-9.2v-15.4h-3.2v15.4c0 4.5-2.4 6.4-6 6.4-3.6 0-6-1.9-6-6.4v-15.4h-3.2zm39.6 2.3c0-9-13.2-5.1-13.2-11.4 0-2.6 2.1-4 4.7-3.9 3 0 4.5 1.9 4.7 3.5h3.5c-0.4-3.7-3.4-6.2-8.1-6.2-4.8 0-8 2.7-8 6.7 0 9.1 13.1 4.9 13.1 11.5 0 2.3-1.8 4-4.9 4-3.3 0-4.8-2-5-4h-3.4c0.1 4 3.5 6.7 8.4 6.7 5.3 0 8.2-3.4 8.2-6.9zm21 6.7h3.4l-8.8-24.3h-3.7l-8.8 24.3h3.4l1.9-5.5h10.7zm-2.9-8h-8.8l4.4-12.3zm8.6-13.8h6.7v21.8h3.1v-21.8h6.7v-2.6h-16.5z"/>
</svg>